<svg viewBox="0 0 428 425" fill="none" xmlns="http://www.w3.org/2000/svg">
    <path
        d="M369.328 193.577C366.19 148.666 346.637 118.967 324.429 99.4092C317.188 100.375 312.118 100.134 312.118 100.134C325.878 110.516 324.188 128.384 324.188 128.384C291.117 126.694 267.944 107.377 267.944 107.377C267.703 124.521 257.081 133.938 257.081 133.938C231.252 122.831 221.114 92.407 221.114 92.407C203.01 89.9925 181.526 111.241 181.526 111.241C165.111 97.4776 176.215 72.6075 176.215 72.6075C161.008 69.4686 150.869 62.4663 144.835 57.3958C88.8319 75.9879 51.1749 127.418 49.9679 178.124C49.7265 186.575 50.4507 195.026 51.4163 203.236C66.3825 189.231 85.6938 181.505 85.6938 181.505L89.556 193.577C72.9001 200.338 60.3477 216.033 55.7613 223.035C68.7964 269.154 103.798 309.477 156.18 330.001C157.387 325.654 157.387 317.445 147.973 305.614L154.007 300.06C154.007 300.06 169.215 312.857 167.767 333.864C182.492 338.693 198.423 341.832 215.803 343.281C320.808 351.732 376.811 301.992 369.328 193.577Z"
        fill="#CF433B" />
    <path
        d="M422.193 224.484C421.71 219.172 417.124 215.55 411.813 216.033C406.502 216.516 402.882 221.104 403.364 226.416C403.364 227.382 403.606 228.106 404.089 228.83C391.295 236.798 363.052 252.252 335.775 253.459V255.632C337.465 255.632 339.154 255.39 340.844 255.149C366.673 252.493 392.743 238.489 405.054 230.762C406.985 233.418 410.123 235.108 413.744 234.867C419.055 234.142 422.676 229.555 422.193 224.484Z"
        fill="black" />
    <path
        d="M320.567 408.957C314.291 403.887 306.325 404.37 301.497 405.336C302.946 398.092 306.084 379.017 305.842 365.978C305.36 349.076 291.842 329.035 291.359 328.311L289.669 329.518C289.911 329.76 303.428 350.042 303.911 366.219C304.394 379.741 300.773 399.541 299.566 406.06C298.601 406.301 297.876 406.543 297.876 406.543C291.118 410.406 314.532 423.928 320.326 424.169C325.878 424.411 329.981 416.684 320.567 408.957Z"
        fill="black" />
    <path
        d="M303.67 103.031C295.463 97.2361 287.738 83.9561 287.738 83.9561C287.738 83.9561 295.704 87.5779 307.532 88.5437C319.36 89.5095 328.775 79.8513 328.775 79.8513C328.775 79.8513 318.636 80.3343 306.567 77.1953C294.497 74.0564 279.772 65.8468 279.772 65.8468C289.186 54.9812 310.67 52.5667 310.67 52.5667C310.67 52.5667 302.704 47.2546 286.773 45.8059C275.669 44.8401 263.358 49.4276 256.84 52.3251C258.771 47.0131 261.426 39.2866 263.599 30.1112C267.461 12.7263 265.771 1.37774 265.771 1.37774C253.943 -3.4514 242.598 5.96548 242.598 5.96548C242.598 5.96548 246.943 11.0361 248.391 21.6602C249.357 28.1795 248.15 40.2523 247.184 48.4619C224.976 26.9722 195.768 20.2114 195.768 20.2114C205.424 28.1794 206.148 49.9105 206.148 49.9105C189.733 51.6007 154.007 37.8377 154.007 37.8377C154.007 37.8377 153.766 41.2182 164.87 54.4983C175.974 67.7784 199.389 65.1225 199.389 65.1225C199.389 65.1225 193.596 68.0199 186.837 79.1269C180.078 90.234 185.147 97.9606 185.147 97.2362C185.147 96.5119 192.63 88.0609 204.217 82.7488C215.562 77.4367 231.011 78.644 231.011 78.644C230.287 110.516 257.564 121.865 257.564 121.865C257.564 121.865 259.978 115.587 260.944 109.55C262.151 103.273 258.53 82.5073 258.53 82.5073C258.53 82.5073 268.91 98.9265 282.186 106.17C295.463 113.655 317.671 119.692 317.671 119.692C317.671 119.692 311.877 109.068 303.67 103.031Z"
        fill="#40803C" />
    <path
        d="M334.085 228.83C341.551 228.83 347.603 222.776 347.603 215.309C347.603 207.841 341.551 201.787 334.085 201.787C326.619 201.787 320.567 207.841 320.567 215.309C320.567 222.776 326.619 228.83 334.085 228.83Z"
        fill="black" />
    <path
        d="M165.353 203.236C172.819 203.236 178.871 197.182 178.871 189.714C178.871 182.247 172.819 176.193 165.353 176.193C157.887 176.193 151.835 182.247 151.835 189.714C151.835 197.182 157.887 203.236 165.353 203.236Z"
        fill="black" />
    <path
        d="M155.697 345.695C173.077 322.757 153.525 304.165 153.525 303.923L152.076 305.372C152.076 305.372 156.663 309.718 159.077 316.721C162.456 326.137 160.767 335.313 154.008 344.247C140.49 362.356 126.006 367.185 121.661 368.151C120.696 367.91 119.73 367.909 119.006 367.909C116.592 368.392 117.316 376.361 124.558 384.57C131.8 392.78 140.972 392.78 144.593 384.811C148.214 376.843 129.144 370.324 129.144 370.324C129.144 370.324 127.696 369.841 125.765 369.117C132.282 367.185 144.111 361.149 155.697 345.695Z"
        fill="black" />
    <path
        d="M272.772 225.45L272.289 225.209L272.048 225.691C272.048 225.691 271.082 228.347 268.91 230.521C266.254 233.177 263.116 234.142 259.737 233.418C259.495 233.418 259.495 233.418 259.254 233.177C250.322 230.762 250.081 223.035 250.081 222.07V221.587H247.184V221.828C247.184 222.07 247.184 224.726 248.633 227.623C249.598 230.038 252.254 234.142 258.53 235.833H259.013C268.668 238.006 273.737 229.313 274.944 226.416L275.427 225.933L272.772 225.45Z"
        fill="black" />
    <path
        d="M237.046 251.769L281.703 260.944C281.703 260.944 265.53 276.639 265.289 276.639C265.047 276.639 248.874 275.19 248.874 275.19L237.046 251.769Z"
        fill="#F9CE66" />
    <path
        d="M278.082 260.22L259.495 276.156C262.633 276.397 265.289 276.639 265.289 276.639C265.53 276.639 281.703 260.944 281.703 260.944L278.082 260.22Z"
        fill="#BF211D" />
    <path d="M244.046 265.29L247.667 272.776L267.22 257.805L257.564 255.874L244.046 265.29Z" fill="#BF211D" />
    <path
        d="M245.978 269.395C245.978 269.395 265.047 272.293 266.979 273.017C268.91 273.741 270.599 287.263 270.117 298.37C269.634 309.477 264.323 337.486 263.116 339.418C262.151 341.349 226.425 358.493 225.459 358.251C224.252 358.01 203.734 328.552 203.976 327.345C204.217 326.138 227.632 303.199 236.322 291.851C244.529 280.985 245.978 269.395 245.978 269.395Z"
        fill="#F9CE66" />
    <path
        d="M269.151 278.812C268.668 275.432 267.944 273.259 267.22 273.017C265.289 272.293 246.219 269.395 246.219 269.395C246.219 269.395 244.77 280.019 237.287 290.643C245.253 287.987 259.978 282.917 269.151 278.812Z"
        fill="#BF211D" />
    <path
        d="M226.908 302.475C220.39 309.718 212.424 317.928 207.838 322.757C223.287 318.169 257.564 307.787 269.875 301.509C270.117 300.302 270.117 299.336 270.117 298.37C270.358 294.024 270.117 289.195 269.875 285.09C260.944 289.436 241.874 298.129 226.908 302.475Z"
        fill="#BF211D" />
    <path
        d="M218.459 349.076C228.115 346.42 252.736 339.418 265.771 329.759C266.978 324.206 268.185 316.721 269.151 310.201C255.633 317.204 224.494 331.932 207.838 333.623C210.493 337.969 214.838 344.005 218.459 349.076Z"
        fill="#BF211D" />
    <path
        d="M81.5902 191.888L80.8661 189.956C65.1756 196.234 54.5544 210.721 48.5197 222.07C44.8988 228.589 42.4849 234.867 41.0365 239.213C40.071 239.213 39.3468 239.455 38.3812 239.696C33.5534 241.145 30.6567 246.457 32.1051 251.286C33.5534 256.115 38.864 259.013 43.6918 257.564C48.5197 256.115 51.4164 250.803 49.968 245.974C49.0024 242.593 46.3471 240.179 42.9677 239.455C47.5541 227.14 59.3822 200.821 81.5902 191.888Z"
        fill="black" />
    <path
        d="M401.192 118.243L418.089 94.5802C418.089 94.5802 419.296 92.1658 415.916 90.4756L396.364 83.9562C396.364 83.9562 393.226 83.2318 390.812 85.8878C388.881 88.0609 381.639 98.6851 378.742 102.79C377.535 101.1 375.846 99.6509 373.432 98.9266C369.087 97.7193 364.742 99.4095 364.017 102.548C363.293 105.687 365.707 109.551 370.052 110.758C373.673 111.724 377.052 110.999 378.742 108.585C378.984 108.343 378.984 108.343 378.984 108.102L388.639 94.5802C388.639 94.5802 389.605 92.6487 392.26 93.6145C394.915 94.5803 408.675 98.9266 408.675 98.9266C408.675 98.9266 411.089 99.4095 410.123 101.341C409.399 102.79 404.571 109.309 401.916 112.931C400.95 110.999 399.019 109.309 396.122 108.585C391.777 107.378 387.432 109.068 386.708 112.207C385.743 115.587 388.398 119.209 392.743 120.416C395.881 121.623 399.743 120.658 401.192 118.243Z"
        fill="black" />
    <path
        d="M40.5537 99.8923L49.9679 72.3663C49.9679 72.3663 50.4507 69.7102 46.8298 68.9858L26.0702 68.2615C26.0702 68.2615 22.6907 68.5028 21.2424 71.6418C20.0354 74.2978 16.1732 86.3708 14.4835 91.1999C13.0351 89.9926 10.8626 89.0267 8.20729 89.0267C3.62087 89.0267 0 91.9243 0 95.3047C0 98.6851 3.62087 101.583 8.20729 101.583C11.8282 101.583 14.9662 99.6509 15.9318 97.2363C16.1732 96.9949 15.9318 96.9948 15.9318 96.7534L21.4838 81.0587C21.4838 81.0587 21.9666 78.8855 24.6219 78.8855C27.2772 79.127 41.7606 79.3684 41.7606 79.3684C41.7606 79.3684 44.1745 79.127 43.6918 81.5416C43.4504 83.2318 40.5537 90.7169 39.1053 95.0631C37.657 93.3729 35.2431 92.4072 32.3464 92.4072C27.76 92.4072 24.1391 95.3046 24.1391 98.685C24.1391 102.065 27.76 104.963 32.3464 104.963C36.6914 104.963 39.8295 102.79 40.5537 99.8923Z"
        fill="black" />
    <path
        d="M79.1761 11.0362L78.6933 46.5304C77.4864 46.0475 76.2794 45.8061 75.0725 45.8061C70.0033 45.8061 66.141 48.7034 66.141 52.3253C65.8996 55.9471 70.0033 59.0862 75.0725 59.0862C80.1417 59.0862 84.0039 56.1887 84.0039 52.5668L84.4867 17.5556C84.4867 17.5556 93.6596 19.0043 95.5907 22.8676C97.5218 26.9724 93.9009 32.043 93.9009 32.043C93.9009 32.043 99.4529 29.6284 100.66 24.7993C101.384 20.453 89.3145 10.7947 79.1761 11.0362Z"
        fill="black" />
    <path
        d="M403.123 149.632L409.882 184.644C408.675 184.402 407.468 184.402 406.261 184.885C401.433 185.851 398.054 189.473 398.778 193.336C399.502 196.958 403.847 199.131 408.916 198.165C413.744 197.199 417.123 193.578 416.399 189.714L409.882 155.427C409.882 155.427 419.055 154.944 421.951 158.566C424.848 161.947 421.951 167.742 421.951 167.742C421.951 167.742 427.02 164.361 427.02 159.291C427.02 154.462 413.261 147.218 403.123 149.632Z"
        fill="black" />
</svg>