<svg viewBox="0 0 252 313" fill="none" xmlns="http://www.w3.org/2000/svg">
    <path d="M0.629518 291.983L225.931 312.054L251.863 20.7896L26.562 0.719061L0.629518 291.983Z" fill="#C47B49" />
    <path d="M14.8478 276.532L214.421 294.311L237.398 36.238L37.8251 18.4595L14.8478 276.532Z" fill="#FFFBF0" />
    <path d="M96.0289 62.4138L213.368 72.8667L213.668 69.4995L96.3286 59.0466L96.0289 62.4138Z" fill="#D19A75" />
    <path d="M91.4419 115.295L208.781 125.748L209.081 122.381L91.7417 111.928L91.4419 115.295Z" fill="#D19A75" />
    <path d="M86.1298 175.419L203.469 185.872L203.769 182.505L86.4296 172.052L86.1298 175.419Z" fill="#D19A75" />
    <path d="M80.3355 240.368L197.675 250.821L197.975 247.454L80.6353 237.001L80.3355 240.368Z" fill="#D19A75" />
    <path d="M55.439 52.9119L66.543 61.1215L94.7857 41.5635L66.7844 71.2627L55.439 52.9119Z" fill="#5CB53E" />
    <path d="M51.0942 100.962L62.1982 109.172L90.4409 89.6135L62.4396 119.313L51.0942 100.962Z" fill="#5CB53E" />
    <path d="M49.8872 152.392L60.9912 160.843L88.9925 141.044L60.9912 170.984L49.8872 152.392Z" fill="#5CB53E" />
    <path d="M42.6455 216.62L53.7495 224.829L81.7508 205.271L53.9908 234.971L42.6455 216.62Z" fill="#5CB53E" />
</svg>