<svg viewBox="0 0 443 428" fill="none" xmlns="http://www.w3.org/2000/svg">
    <path
        d="M3.2386 373.151C3.2386 373.151 -3.03757 398.745 3.72137 406.472C10.2389 413.716 356.393 430.135 358.325 426.996C363.877 418.062 360.497 395.848 360.497 395.848L23.274 374.358L3.2386 373.151Z"
        fill="#59351C" />
    <path
        d="M143.245 297.574C144.693 297.574 146.383 297.816 147.832 297.816C146.142 297.575 144.693 297.574 143.245 297.574Z"
        fill="#F2D4C7" />
    <path d="M164.729 298.54C166.66 298.54 168.35 298.782 170.04 298.782C168.109 298.54 166.419 298.54 164.729 298.54Z"
        fill="#F2D4C7" />
    <path
        d="M137.21 297.333C138.659 297.333 140.107 297.574 141.555 297.574C140.107 297.333 138.417 297.333 137.21 297.333Z"
        fill="#F2D4C7" />
    <path
        d="M147.832 297.816C153.142 298.058 158.694 298.299 164.246 298.541C158.453 298.058 153.142 298.058 147.832 297.816Z"
        fill="#F2D4C7" />
    <path
        d="M110.416 325.825C110.657 325.825 110.899 325.825 110.899 325.584C110.657 325.825 110.657 325.825 110.416 325.825Z"
        fill="#F2D4C7" />
    <path
        d="M112.106 296.126C117.899 296.367 124.175 296.609 130.693 296.85C124.175 296.85 117.899 296.367 112.106 296.126Z"
        fill="#F2D4C7" />
    <path
        d="M136.003 297.333C136.245 297.333 136.728 297.333 136.969 297.333C136.728 297.092 136.486 297.333 136.003 297.333Z"
        fill="#F2D4C7" />
    <path
        d="M274.803 303.611C274.32 307.233 273.355 311.579 272.389 316.408C272.872 316.891 273.355 317.374 273.838 318.098C277.458 316.65 285.666 312.545 291.942 303.853C286.631 303.611 280.838 303.37 274.562 302.887L274.803 303.611Z"
        fill="#6D4225" />
    <path
        d="M103.174 295.884C97.1395 295.643 91.5876 295.401 86.7598 295.16C90.1392 298.782 95.6912 304.094 101.243 306.508C102.209 305.543 103.898 304.577 105.347 304.094L103.174 295.884Z"
        fill="#6D4225" />
    <path
        d="M258.147 371.702C258.147 371.702 119.106 363.009 113.071 361.561C107.036 360.112 111.864 332.586 111.864 332.586L110.416 325.825C109.692 326.067 108.968 326.067 108.002 325.825C102.45 325.342 98.105 320.996 97.6223 315.442C92.7945 313.028 82.1732 306.267 75.1729 294.436C68.6553 294.194 65.0345 293.953 65.0345 293.953C58.5169 293.47 51.758 293.47 41.6195 300.231C31.4811 306.75 -5.93447 372.185 5.16951 382.326C13.8596 394.64 355.186 417.579 360.497 398.021C363.394 389.087 333.461 307.474 323.323 305.543C322.116 305.301 316.564 304.818 308.356 304.335C301.356 313.028 289.528 325.101 276.734 328.24C275.769 332.827 272.389 337.656 267.561 338.381C267.32 338.622 269.975 372.426 258.147 371.702ZM87.2424 376.772C61.8964 381.36 51.0338 363.975 48.8613 356.973C46.6888 349.971 41.6196 334.518 56.3444 324.376C56.3444 324.376 72.5176 313.269 91.1047 325.342C106.795 335.483 112.347 372.185 87.2424 376.772Z"
        fill="#6D4225" />
    <path
        d="M170.281 298.54C179.695 299.023 189.351 299.265 199.006 299.748C189.351 299.506 179.936 299.023 170.281 298.54Z"
        fill="#F2D4C7" />
    <path
        d="M239.077 301.438C248.25 301.921 256.94 302.162 265.147 302.645C256.94 302.404 248.009 301.921 239.077 301.438Z"
        fill="#F2D4C7" />
    <path
        d="M271.182 61.9126C264.423 63.3613 262.251 66.2588 262.251 66.2588C275.769 78.5731 269.493 98.6141 269.493 98.6141C255.251 87.0242 229.422 82.6778 229.422 82.6778C240.767 95.7165 233.525 125.416 233.525 125.416C208.904 124.933 180.178 89.6802 180.178 89.6802C170.281 104.892 142.521 116.482 142.521 116.482C133.107 101.753 136.969 71.8123 136.969 71.8123C123.934 70.3635 105.347 71.8124 92.5531 73.2611C62.6206 97.1654 42.5852 131.694 39.9299 171.534C37.9988 199.543 44.7577 226.103 58.0342 249.042C57.5514 221.757 70.5865 208.718 70.5865 208.718L80.2422 214.272C80.2422 214.272 70.5865 225.62 69.3796 247.352C68.8968 256.044 70.3451 263.288 72.0349 269.083C80.0008 278.741 89.1736 287.433 99.5534 294.677L103.174 294.919C98.8293 273.429 92.0703 234.071 99.7948 224.655C110.416 211.616 274.32 226.103 283.252 237.693C288.08 243.73 283.735 272.946 278.666 299.506C291.701 290.814 303.529 280.19 313.184 268.117C314.15 259.424 314.15 245.179 308.115 232.14L318.254 227.794C318.254 227.794 323.564 234.071 325.254 250.249C334.91 233.106 341.186 213.548 342.634 193.024C346.014 138.213 317.047 89.1972 271.182 61.9126Z"
        fill="#CF433B" />
    <path
        d="M191.041 33.1791C191.041 33.1791 187.903 11.6894 174.867 4.92861C174.867 4.92861 192.489 -1.5907 199.972 0.58241C207.214 2.75552 208.662 31.9718 208.662 31.9718C208.662 31.9718 247.043 19.4161 270.941 34.6279C270.941 34.6279 241.491 44.2862 232.56 56.6005C232.56 56.6005 246.56 62.3955 253.802 68.6733C261.044 74.9512 264.423 86.2997 264.423 86.2997C264.423 86.2997 234.491 67.9489 211.317 68.9147C211.317 68.9147 227.249 91.1288 227.732 111.653C227.732 111.653 205.524 103.926 197.317 92.819C188.868 81.9535 187.661 74.4684 183.075 72.0538C183.075 72.0538 155.556 99.3383 147.59 100.304C147.59 100.304 142.038 84.6094 154.832 62.8783C154.832 62.8783 122.003 60.9467 110.416 63.3613C110.416 63.3613 119.83 42.8374 158.936 40.4228C158.936 40.4228 141.073 24.9697 128.279 24.9697C128.279 25.4526 151.935 9.03341 191.041 33.1791Z"
        fill="#40803C" />
    <path
        d="M266.113 195.68C271.312 195.68 275.527 191.464 275.527 186.263C275.527 181.062 271.312 176.846 266.113 176.846C260.914 176.846 256.699 181.062 256.699 186.263C256.699 191.464 260.914 195.68 266.113 195.68Z"
        fill="black" />
    <path
        d="M112.106 184.814C117.305 184.814 121.52 180.598 121.52 175.397C121.52 170.197 117.305 165.98 112.106 165.98C106.906 165.98 102.691 170.197 102.691 175.397C102.691 180.598 106.906 184.814 112.106 184.814Z"
        fill="black" />
    <path
        d="M189.592 197.129H189.833C193.937 197.611 196.11 200.026 197.075 201.716C198.282 203.648 198.523 205.338 198.523 205.338L197.075 205.58C197.075 205.338 196.11 199.543 189.592 198.577C186.937 198.094 184.523 199.06 182.833 201.475C181.626 203.165 181.143 205.097 180.902 205.338L179.454 205.097C179.695 204.614 181.867 196.163 189.592 197.129Z"
        fill="black" />
    <path
        d="M109.692 307.957C106.795 307.716 104.14 309.406 102.691 311.821C98.3464 309.648 93.2772 306.267 88.208 301.438C81.2077 294.677 71.7935 283.087 67.4485 265.702C59.7239 235.037 72.0349 218.377 72.0349 218.377L69.8624 216.687C69.3796 217.411 56.5859 234.313 64.7931 266.185C71.3107 291.78 89.1736 308.44 101.726 314.235C101.726 314.477 101.726 314.477 101.726 314.718C101.485 318.823 104.381 322.203 108.485 322.686C112.589 322.928 115.968 320.03 116.451 315.925C116.692 311.821 113.796 308.199 109.692 307.957Z"
        fill="black" />
    <path
        d="M264.182 318.823C267.079 319.064 269.492 320.996 270.699 323.652C275.286 322.203 280.838 319.547 286.39 315.442C294.356 309.889 305.218 299.506 311.977 283.087C324.047 253.871 314.15 235.761 313.908 235.52L316.322 234.071C316.805 234.796 327.185 253.388 314.633 283.811C304.494 308.199 284.7 322.203 271.182 326.066C271.182 326.308 271.182 326.308 271.182 326.549C270.941 330.654 267.32 333.793 263.216 333.31C259.113 333.069 255.975 329.447 256.457 325.342C256.699 321.479 260.32 318.581 264.182 318.823Z"
        fill="black" />
    <path
        d="M257.423 365.907L117.175 356.007C115.244 355.766 114.037 354.317 114.037 352.627L115.002 339.105C115.244 337.174 116.692 335.966 118.382 335.966L258.63 345.866C260.561 346.107 261.768 347.556 261.768 349.246L260.802 362.768C260.802 364.7 259.113 366.148 257.423 365.907Z"
        fill="#D8D8D8" />
    <path
        d="M260.078 341.52L117.658 331.378C117.658 331.378 96.898 246.386 107.761 230.208C112.347 223.447 266.113 234.313 275.527 240.591C282.769 245.42 260.078 341.52 260.078 341.52Z"
        fill="#D8D8D8" />
    <path
        d="M196.351 276.809C195.627 276.326 194.661 275.119 194.661 275.119C194.661 275.119 195.386 275.361 196.592 275.361C197.799 275.361 198.524 274.153 198.524 274.153C198.524 274.153 197.558 274.395 196.351 274.395C195.144 274.395 193.454 273.67 193.454 273.67C194.179 272.463 196.351 271.98 196.351 271.98C196.351 271.98 195.627 271.497 193.937 271.739C192.73 271.739 191.765 272.463 191.04 272.946C191.282 272.463 191.282 271.497 191.282 270.773C191.523 269.083 191.04 267.875 191.04 267.875C189.833 267.634 188.868 268.6 188.868 268.6C188.868 268.6 189.351 269.083 189.592 270.049C189.833 270.773 189.833 271.98 189.833 272.705C187.42 271.014 184.523 270.773 184.523 270.773C185.488 271.256 185.971 273.429 185.971 273.429C184.281 273.912 180.661 272.946 180.661 272.946C180.661 272.946 180.661 273.188 181.868 274.395C183.075 275.602 185.247 274.878 185.247 274.878C185.247 274.878 184.764 275.361 184.282 276.568C183.799 277.775 184.523 278.5 184.523 278.258C184.523 278.017 185.006 277.292 186.213 276.568C187.178 275.843 188.627 275.843 188.627 275.843C189.109 278.982 191.765 279.465 191.765 279.465C191.765 279.465 192.006 278.982 192.006 278.258C192.006 277.534 191.282 275.602 191.282 275.602C191.282 275.602 192.489 277.051 193.937 277.534C195.385 278.017 197.558 278.258 197.558 278.258C197.558 278.258 197.317 277.051 196.351 276.809Z"
        fill="#C95B5E" />
    <path
        d="M204.076 284.536C202.869 279.948 200.455 277.292 197.8 275.843C197.317 276.085 197.075 276.326 197.075 276.326C198.524 277.292 198.524 279.224 198.524 279.224C195.627 279.465 192.73 278.017 192.73 278.017C192.73 279.707 191.765 280.673 191.765 280.673C189.351 279.948 187.42 277.051 187.42 277.051C185.971 277.292 184.282 279.465 184.282 279.465C182.833 277.775 183.799 275.843 183.799 275.843C182.351 275.843 180.902 275.361 179.937 274.878C174.867 277.534 171.729 283.087 172.454 287.916C173.419 295.643 180.661 302.162 191.041 301.438C201.903 300.472 206.731 294.919 204.076 284.536Z"
        fill="#C95B5E" />
    <path
        d="M99.312 352.385C99.312 352.385 88.9322 347.798 78.0696 349.488C67.207 351.42 56.8271 359.871 56.8271 359.871C59.2411 363.492 64.0689 375.082 83.6216 371.943C103.174 368.563 99.312 352.385 99.312 352.385ZM77.8282 367.597L73.4832 353.593C73.4832 353.593 78.0696 350.212 82.8974 350.695L88.208 364.217C88.4494 364.217 82.656 368.563 77.8282 367.597Z"
        fill="#D8D8D8" />
    <path
        d="M55.1378 357.456C55.1378 357.456 65.5176 348.764 77.3457 346.59C89.4153 344.417 99.3123 350.212 99.3123 350.212C99.3123 350.212 95.6914 322.928 71.3109 324.618C46.6891 326.308 51.5169 351.661 55.1378 357.456Z"
        fill="#D8D8D8" />
    <path
        d="M76.1387 355.524C76.1387 355.524 79.2768 353.351 82.4148 353.593L86.0357 362.527C86.0357 362.527 82.1735 365.424 79.0354 364.941L76.1387 355.524Z"
        fill="#D8D8D8" />
    <path
        d="M355.428 105.133C355.428 105.133 358.325 101.753 357.118 91.1287C355.67 80.7461 354.945 67.9489 370.394 60.2222C385.844 52.4956 407.569 59.4979 411.914 79.2974C416.259 99.0969 400.327 108.514 394.775 110.928C388.982 113.343 377.636 112.377 373.291 114.791C368.946 116.965 370.877 121.311 355.428 105.133Z"
        fill="#F9CE66" />
    <path
        d="M362.67 122.277L350.117 110.687C349.635 110.204 349.635 109.48 350.117 108.997L351.566 107.548C352.049 107.065 352.773 107.065 353.256 107.548L365.808 119.138C366.291 119.621 366.291 120.345 365.808 120.828L364.36 122.277C364.118 122.76 363.153 122.76 362.67 122.277Z"
        fill="#191919" />
    <path
        d="M367.256 117.689C367.015 117.448 366.774 117.448 366.291 117.206L355.187 107.065C353.739 105.858 353.739 103.685 354.945 102.236C355.187 101.753 356.635 98.614 355.911 92.819C355.67 91.8532 355.428 90.646 355.428 89.6801C354.221 83.4022 352.532 75.4342 362.187 64.8101C368.946 57.0835 384.878 52.7371 397.189 58.5321C402.258 60.9467 406.12 64.3271 409.258 69.3977C414.81 78.573 415.776 87.507 411.672 96.1995C408.051 103.685 401.775 108.514 399.844 109.48C395.499 112.377 390.189 112.86 385.119 113.101C379.809 113.584 374.74 114.067 371.36 116.965C370.153 118.172 368.463 118.413 367.256 117.689ZM395.982 60.9467C384.637 55.6346 370.153 59.7395 363.877 66.7417C355.187 76.4 356.635 83.4022 357.601 89.4386C357.842 90.6459 358.084 91.6118 358.325 92.5776C359.291 99.8214 357.118 103.685 356.877 103.926L356.635 104.168C356.394 104.65 356.394 105.133 356.635 105.375L367.739 115.516C368.222 115.758 368.705 115.758 368.946 115.516L369.188 115.275C373.291 111.894 379.085 111.411 384.637 110.928C389.464 110.445 394.534 109.962 398.154 107.548C400.327 106.099 419.88 92.3362 406.844 70.8465C404.189 66.2588 400.568 63.1198 395.982 60.9467Z"
        fill="#191919" />
    <path
        d="M359.29 126.382L346.738 114.792C346.255 114.309 346.255 113.584 346.738 113.102L348.186 111.653C348.669 111.17 349.393 111.17 349.876 111.653L362.428 123.243C362.911 123.726 362.911 124.45 362.428 124.933L360.98 126.382C360.256 126.623 359.532 126.623 359.29 126.382Z"
        fill="#191919" />
    <path
        d="M355.428 130.486L342.876 118.896C342.393 118.413 342.393 117.689 342.876 117.206L344.324 115.757C344.807 115.275 345.531 115.275 346.014 115.757L358.566 127.347C359.049 127.83 359.049 128.555 358.566 129.038L357.118 130.486C356.635 130.728 355.911 130.728 355.428 130.486Z"
        fill="#191919" />
    <path
        d="M363.394 108.273L362.67 107.065C363.877 106.341 366.049 104.651 367.739 102.96C365.808 102.719 363.877 101.753 362.67 100.304C361.463 98.6141 361.222 96.9241 362.187 94.9924C363.153 92.8193 364.842 92.8192 365.808 93.0606C368.463 93.785 370.877 97.6483 370.877 100.304C370.877 100.787 370.636 101.029 370.636 101.512C373.532 100.787 375.464 98.8557 376.188 96.1997C375.222 96.1997 374.015 95.9581 372.808 95.4752C370.636 94.2679 368.463 91.8534 368.463 89.1974C368.463 87.5072 369.67 86.0585 371.36 86.0585C374.015 85.817 376.912 87.99 377.636 91.8533C377.878 92.5777 377.878 93.3022 377.878 93.7851C379.809 91.612 378.843 87.2658 378.36 85.3341C377.636 82.1952 383.912 77.8489 385.361 77.1245L386.085 78.3318C383.188 80.022 379.567 83.4024 379.809 84.8512C380.291 87.2657 381.74 92.8192 378.119 95.2338C377.878 95.2338 377.636 95.4752 377.636 95.4752C377.153 99.3385 374.739 101.995 370.636 102.96C370.394 102.96 369.912 103.202 369.429 103.202C367.739 105.616 364.118 107.79 363.394 108.273ZM365.808 94.5095C365.567 94.5095 365.567 94.2679 365.325 94.2679C364.842 94.0264 364.118 94.0264 363.394 95.4752C362.428 97.1654 363.153 98.3728 363.635 99.3386C364.601 100.546 366.774 101.512 368.463 101.753C368.705 101.27 368.946 100.787 368.946 100.304C369.187 97.8898 367.498 95.2338 365.808 94.5095ZM373.05 87.5071C372.567 87.2657 371.843 87.2657 371.601 87.0242C370.877 87.0242 370.153 87.2657 370.153 88.473C370.153 90.4047 371.843 92.5777 373.532 93.5436C374.498 94.0265 375.464 94.2679 376.188 94.2679C376.188 93.5435 376.188 92.5778 375.946 91.6119C375.705 89.4388 374.257 87.9901 373.05 87.5071Z"
        fill="#C95B5E" />
    <path
        d="M330.323 76.6414C330.323 76.6414 347.703 77.6072 348.91 79.5389C349.876 81.4705 333.22 86.5411 331.53 85.5753C329.358 84.6095 326.22 77.3657 330.323 76.6414Z"
        fill="#F9CE66" />
    <path
        d="M346.979 44.7691C346.979 44.7691 358.807 58.0493 358.325 60.2224C357.842 62.3955 341.91 54.1859 341.186 52.0128C340.462 50.0812 343.358 42.596 346.979 44.7691Z"
        fill="#F9CE66" />
    <path
        d="M377.877 31.4888C377.877 31.4888 376.429 47.9079 374.498 48.8738C372.808 49.8396 368.222 33.9035 369.187 32.2133C370.153 30.2817 376.912 27.6255 377.877 31.4888Z"
        fill="#F9CE66" />
    <path
        d="M440.88 73.0194C440.88 73.0194 424.707 76.3998 423.259 74.951C421.81 73.5023 435.811 64.5684 437.742 65.0513C439.673 65.5343 444.501 71.3292 440.88 73.0194Z"
        fill="#F9CE66" />
    <path
        d="M431.707 113.101C431.707 113.101 419.396 101.994 419.879 99.8212C420.12 97.8895 435.569 103.926 436.535 105.858C437.018 107.548 435.087 114.792 431.707 113.101Z"
        fill="#F9CE66" />
    <path
        d="M404.43 137.971C404.43 137.971 401.051 121.794 402.499 120.345C403.947 118.896 412.879 132.901 412.396 134.833C411.913 136.764 406.361 141.352 404.43 137.971Z"
        fill="#F9CE66" />
    <path
        d="M379.326 138.937C379.326 138.937 384.154 123.243 386.085 122.518C388.257 122.035 389.223 138.454 387.774 139.903C386.567 141.835 379.326 143.042 379.326 138.937Z"
        fill="#F9CE66" />
    <path
        d="M416.017 36.8009C416.017 36.8009 407.568 51.0469 405.396 51.0469C403.223 51.2884 406.12 34.8693 407.81 33.662C409.499 32.4547 416.983 33.1791 416.017 36.8009Z"
        fill="#F9CE66" />
</svg>