<svg viewBox="0 0 314 369" fill="none" xmlns="http://www.w3.org/2000/svg">
    <path d="M71.7011 368.047L313.573 312.62L241.99 0.077261L0.118489 55.5043L71.7011 368.047Z" fill="#C47B49" />
    <path d="M81.2686 347.281L295.612 298.162L232.169 21.1573L17.8252 70.276L81.2686 347.281Z" fill="#FFFBF0" />
    <path d="M93.7038 96.3392L219.581 67.4934L218.772 63.9632L92.8952 92.809L93.7038 96.3392Z" fill="#D19A75" />
    <path d="M106.74 153.071L232.616 124.226L231.808 120.695L105.931 149.541L106.74 153.071Z" fill="#D19A75" />
    <path d="M121.464 217.539L247.341 188.693L246.533 185.163L120.656 214.008L121.464 217.539Z" fill="#D19A75" />
    <path d="M137.388 287.314L263.265 258.468L262.456 254.938L136.58 283.784L137.388 287.314Z" fill="#D19A75" />
    <path d="M47.9688 100.056L62.4522 105.126L85.143 74.9441L65.8317 115.509L47.9688 100.056Z" fill="#5CB53E" />
    <path d="M59.7969 151.969L74.2803 156.798L96.9711 126.616L77.6598 167.181L59.7969 151.969Z" fill="#5CB53E" />
</svg>