<svg viewBox="0 0 440 426" fill="none" xmlns="http://www.w3.org/2000/svg">
    <path
        d="M2.65168 371.173C2.65168 371.173 -3.62449 396.768 3.13446 404.494C9.41062 411.738 354.358 428.157 356.289 425.018C361.841 416.084 358.462 393.87 358.462 393.87L22.6871 372.622L2.65168 371.173Z"
        fill="#59351C" />
    <path
        d="M141.934 295.838C143.382 295.838 144.831 296.08 146.52 296.08C145.072 296.08 143.382 295.838 141.934 295.838Z"
        fill="#F2D4C7" />
    <path
        d="M163.418 296.804C165.349 296.804 166.797 297.046 168.729 297.046C167.039 296.804 165.108 296.804 163.418 296.804Z"
        fill="#F2D4C7" />
    <path
        d="M135.899 295.597C137.348 295.597 138.796 295.838 140.244 295.838C138.796 295.597 137.348 295.597 135.899 295.597Z"
        fill="#F2D4C7" />
    <path
        d="M273.01 301.875C272.527 305.497 271.561 309.843 270.596 314.672C271.078 315.155 271.561 315.638 272.044 316.362C275.665 314.913 283.631 310.809 290.148 302.358C284.838 302.116 279.044 301.875 272.768 301.392L273.01 301.875Z"
        fill="#6D4225" />
    <path
        d="M102.104 294.39C96.0697 294.148 90.5178 293.907 85.6899 293.665C89.0694 297.287 94.6214 302.599 100.173 305.014C101.139 304.048 102.829 303.082 104.036 302.599L102.104 294.39Z"
        fill="#6D4225" />
    <path
        d="M256.595 369.724C256.595 369.724 118.037 361.032 112.002 359.583C105.967 357.893 110.795 330.85 110.795 330.85L109.346 324.089C108.622 324.33 107.898 324.33 107.174 324.089C101.622 323.606 97.277 319.26 96.7942 313.948C91.9664 311.533 81.5865 305.014 74.3448 292.941C67.8272 292.7 64.2064 292.458 64.2064 292.458C57.6889 291.975 50.9299 291.975 40.7915 298.736C30.6531 305.255 -6.52116 370.449 4.34143 380.59C13.0315 392.904 352.91 415.601 358.22 396.043C361.117 387.109 331.185 305.738 321.046 303.807C319.839 303.565 314.287 303.082 306.08 302.599C299.08 311.292 287.493 323.123 274.699 326.503C273.734 331.091 270.354 335.92 265.526 336.645C265.526 336.886 268.423 370.449 256.595 369.724ZM86.1729 374.795C61.0683 379.383 50.2057 361.998 47.7918 354.995C45.6193 347.993 40.5501 332.781 55.2749 322.399C55.2749 322.399 71.4481 311.533 90.0352 323.365C105.967 333.506 111.519 370.207 86.1729 374.795Z"
        fill="#6D4225" />
    <path
        d="M169.211 297.046C178.626 297.529 188.281 297.77 197.696 298.253C188.04 297.77 178.626 297.529 169.211 297.046Z"
        fill="#F2D4C7" />
    <path
        d="M237.525 299.702C246.698 300.185 255.388 300.426 263.595 300.909C255.388 300.668 246.456 300.185 237.525 299.702Z"
        fill="#F2D4C7" />
    <path
        d="M209.523 298.495C218.938 298.978 228.352 299.219 237.525 299.702C228.352 299.46 218.938 298.978 209.523 298.495Z"
        fill="#F2D4C7" />
    <path
        d="M269.63 61.1421C262.871 62.5908 260.699 65.4884 260.699 65.4884C273.975 77.8027 267.699 97.6021 267.699 97.6021C253.457 86.2536 227.628 81.9074 227.628 81.9074C238.973 94.9461 231.732 124.404 231.732 124.404C207.11 123.921 178.626 88.9097 178.626 88.9097C168.97 103.88 141.21 115.47 141.21 115.47C131.796 100.741 135.658 70.8004 135.658 70.8004C122.623 69.3516 104.277 70.8004 91.4836 72.2491C61.7925 95.9119 41.7571 130.44 38.8604 170.281C36.9293 198.048 43.6882 224.609 56.7233 247.547C56.2406 220.504 69.2756 207.465 69.2756 207.465L78.9313 213.019C78.9313 213.019 69.2756 224.126 68.0687 245.857C67.5859 254.549 69.0343 261.793 70.724 267.346C78.6899 277.005 87.8628 285.697 98.0012 292.941L101.381 293.182C97.0356 271.693 90.2767 232.577 98.0012 223.16C108.622 210.121 271.803 224.609 280.734 235.957C285.32 241.993 281.217 271.21 276.148 297.529C289.183 288.836 300.769 278.453 310.667 266.381C311.632 257.688 311.632 243.442 305.839 230.645L315.977 226.299C315.977 226.299 321.046 232.577 322.977 248.754C332.633 231.611 338.909 212.294 340.358 191.529C343.979 137.201 315.012 88.4267 269.63 61.1421Z"
        fill="#CF433B" />
    <path
        d="M189.73 32.6503C189.73 32.6503 186.833 11.1606 173.798 4.64124C173.798 4.64124 191.419 -1.87813 198.661 0.536438C205.903 2.70955 207.351 31.9259 207.351 31.9259C207.351 31.9259 245.491 19.3701 269.388 34.5819C269.388 34.5819 239.939 44.2402 231.249 56.5545C231.249 56.5545 245.249 62.108 252.491 68.6274C259.733 74.9053 263.112 86.2537 263.112 86.2537C263.112 86.2537 233.18 67.903 210.248 68.8688C210.248 68.8688 225.938 91.0828 226.662 111.607C226.662 111.607 204.696 103.88 196.247 93.0145C187.798 82.149 186.833 74.9053 182.246 72.2492C182.246 72.2492 154.969 99.5339 146.762 100.5C146.762 100.5 141.451 85.0464 154.004 63.3153C154.004 63.3153 121.174 61.3837 109.829 63.7982C109.829 63.7982 119.243 43.5158 158.107 41.1013C158.107 41.1013 140.486 25.648 127.451 25.648C127.209 24.9237 150.624 8.74602 189.73 32.6503Z"
        fill="#40803C" />
    <path
        d="M264.561 194.185C269.627 194.185 273.734 190.077 273.734 185.01C273.734 179.942 269.627 175.834 264.561 175.834C259.495 175.834 255.388 179.942 255.388 185.01C255.388 190.077 259.495 194.185 264.561 194.185Z"
        fill="black" />
    <path
        d="M111.278 183.32C116.344 183.32 120.451 179.212 120.451 174.144C120.451 169.077 116.344 164.969 111.278 164.969C106.212 164.969 102.105 169.077 102.105 174.144C102.105 179.212 106.212 183.32 111.278 183.32Z"
        fill="black" />
    <path
        d="M188.523 201.67H188.281C184.178 201.187 182.005 199.014 180.798 197.324C179.591 195.392 179.108 193.702 179.108 193.702L180.557 193.461C180.557 193.702 181.522 199.497 188.281 200.221C190.937 200.463 193.35 199.497 194.799 197.083C196.006 195.151 196.489 193.461 196.489 193.219L197.937 193.461C198.178 193.944 196.247 202.153 188.523 201.67Z"
        fill="black" />
    <path
        d="M108.622 306.221C105.726 305.98 103.07 307.67 101.622 310.084C97.277 307.911 92.2078 304.772 87.1386 299.702C80.1382 293.182 70.9654 281.351 66.6203 264.207C58.8958 233.542 71.2067 217.123 71.2067 217.123L69.0342 215.433C68.5515 216.157 55.7577 232.818 63.965 264.69C70.4826 290.285 88.1041 306.704 100.898 312.499C100.898 312.74 100.898 312.74 100.898 312.982C100.656 317.087 103.553 320.467 107.657 320.708C111.76 320.95 115.14 318.052 115.381 313.948C115.623 310.084 112.485 306.462 108.622 306.221Z"
        fill="black" />
    <path
        d="M262.629 317.087C265.526 317.328 267.94 319.26 269.147 321.916C273.734 320.467 279.285 317.811 284.837 313.706C292.562 308.153 303.425 297.77 310.184 281.351C322.253 252.135 312.356 234.025 312.115 234.025L314.529 232.577C315.011 233.301 325.15 251.652 312.839 282.075C302.7 306.463 282.906 320.226 269.63 324.33C269.63 324.572 269.63 324.572 269.63 324.813C269.388 328.918 265.768 331.816 261.905 331.574C257.802 331.333 254.905 327.711 255.146 323.847C254.905 319.743 258.526 316.604 262.629 317.087Z"
        fill="black" />
    <path
        d="M255.871 363.929L116.105 354.03C114.416 353.788 112.967 352.339 112.967 350.649L113.933 337.128C114.174 335.438 115.623 333.989 117.312 333.989L257.078 343.889C258.767 344.13 260.216 345.579 260.216 347.269L259.25 360.791C259.25 362.722 257.56 364.171 255.871 363.929Z"
        fill="#D8D8D8" />
    <path
        d="M258.526 339.542L116.588 329.401C116.588 329.401 95.8287 244.65 106.691 228.713C111.278 221.953 264.32 232.818 273.734 239.096C280.975 244.167 258.526 339.542 258.526 339.542Z"
        fill="#D8D8D8" />
    <path
        d="M195.04 275.073C194.316 274.59 193.351 273.383 193.351 273.383C193.351 273.383 194.075 273.625 195.282 273.625C196.489 273.625 197.213 272.417 197.213 272.417C197.213 272.417 196.247 272.659 195.04 272.659C193.833 272.659 192.144 271.934 192.144 271.934C192.868 270.727 195.04 270.244 195.04 270.244C195.04 270.244 194.316 269.761 192.626 270.003C191.419 270.003 190.454 270.727 189.971 271.21C190.212 270.727 190.212 269.761 190.212 269.037C190.454 267.347 189.971 266.139 189.971 266.139C188.764 265.898 187.799 266.864 187.799 266.864C187.799 266.864 188.281 267.347 188.523 268.313C188.764 269.037 188.764 270.244 188.764 270.968C186.35 269.278 183.454 269.037 183.454 269.037C184.419 269.52 184.902 271.693 184.902 271.693C183.212 272.176 179.591 271.21 179.591 271.21C179.591 271.21 179.591 271.451 180.798 272.659C182.005 273.866 184.178 273.142 184.178 273.142C184.178 273.142 183.695 273.625 183.212 274.832C182.729 276.039 183.454 276.763 183.454 276.522C183.454 276.522 183.936 275.556 185.143 274.832C186.109 274.107 187.557 274.107 187.557 274.107C188.04 277.246 190.695 277.729 190.695 277.729C190.695 277.729 190.937 277.246 190.937 276.522C190.937 276.039 190.212 273.866 190.212 273.866C190.212 273.866 191.419 275.315 192.868 275.798C194.316 276.281 196.489 276.522 196.489 276.522C196.489 276.522 196.006 275.556 195.04 275.073Z"
        fill="#C95B5E" />
    <path
        d="M202.765 282.8C201.558 278.212 199.144 275.556 196.489 274.107C196.006 274.349 195.765 274.59 195.765 274.59C197.213 275.556 197.213 277.488 197.213 277.488C194.316 277.729 191.42 276.281 191.42 276.281C191.42 277.971 190.454 278.937 190.454 278.937C188.04 278.212 186.35 275.315 186.35 275.315C184.902 275.556 183.212 277.729 183.212 277.729C181.764 276.039 182.73 274.107 182.73 274.107C181.281 274.107 179.833 273.625 178.867 273.142C173.798 275.798 170.901 281.351 171.384 286.18C172.35 293.907 179.591 300.185 189.971 299.46C200.592 298.736 205.179 293.183 202.765 282.8Z"
        fill="#C95B5E" />
    <path
        d="M98.2422 350.408C98.2422 350.408 88.1039 345.82 77.2413 347.51C66.3787 349.2 56.2402 357.893 56.2402 357.893C58.6541 361.515 63.482 373.105 83.0346 369.966C102.105 366.585 98.2422 350.408 98.2422 350.408ZM76.9999 365.619L72.6549 351.615C72.6549 351.615 77.2413 348.235 82.0691 348.717L87.3796 362.239C87.621 362.239 81.8277 366.585 76.9999 365.619Z"
        fill="#D8D8D8" />
    <path
        d="M54.3092 355.478C54.3092 355.478 64.689 346.786 76.5171 344.613C88.3453 342.44 98.4837 348.235 98.4837 348.235C98.4837 348.235 94.8628 321.192 70.4823 322.882C45.8605 324.33 50.6883 349.683 54.3092 355.478Z"
        fill="#D8D8D8" />
    <path
        d="M75.3105 353.547C75.3105 353.547 78.2073 351.374 81.5867 351.615L85.2076 360.549C85.2076 360.549 81.3453 363.447 78.2073 362.964L75.3105 353.547Z"
        fill="#D8D8D8" />
    <path
        d="M353.393 104.122C353.393 104.122 356.29 100.741 355.083 90.3584C353.634 79.9758 352.91 67.1786 368.359 59.452C383.808 51.7253 405.533 58.7276 409.637 78.2856C413.982 98.0851 398.292 107.502 392.498 109.675C386.705 112.09 375.36 111.124 371.015 113.538C366.67 115.953 368.842 120.299 353.393 104.122Z"
        fill="#F9CE66" />
    <path
        d="M360.635 121.265L348.082 109.917C347.6 109.434 347.6 108.709 348.082 108.226L349.531 106.778C350.013 106.295 350.738 106.295 351.22 106.778L363.773 118.126C364.255 118.609 364.255 119.334 363.773 119.816L362.324 121.265C362.083 121.507 361.117 121.507 360.635 121.265Z"
        fill="#191919" />
    <path
        d="M365.221 116.919C364.98 116.677 364.738 116.677 364.256 116.436L353.152 106.295C351.703 105.087 351.703 102.914 352.91 101.466C353.152 100.983 354.6 97.8438 353.876 92.0488C353.635 91.083 353.393 89.8756 353.393 88.9098C352.186 82.6319 350.496 74.6639 360.152 64.0398C366.911 56.3131 382.601 51.9669 395.154 57.7619C400.223 60.1764 404.085 63.5568 407.223 68.6274C412.775 77.8028 413.741 86.7367 409.637 95.1877C406.016 102.673 399.74 107.261 397.809 108.468C393.464 111.365 388.395 111.848 383.084 112.09C377.774 112.573 372.704 113.056 369.325 115.953C368.118 117.16 366.428 117.402 365.221 116.919ZM393.705 60.1764C382.36 54.8644 368.118 58.9691 361.842 65.9714C353.152 75.6297 354.6 82.6319 355.566 88.6683C355.807 89.8756 356.048 90.8415 356.29 91.8073C357.255 99.051 355.083 102.914 354.841 102.914H354.6C354.359 103.397 354.359 103.88 354.6 104.122L365.704 114.263C366.187 114.504 366.67 114.504 366.911 114.263L367.152 114.021C371.256 110.641 377.049 110.158 382.36 109.675C387.188 109.192 392.257 108.709 395.878 106.295C398.05 104.846 417.362 91.0829 404.327 69.8347C402.154 65.7299 398.292 62.3495 393.705 60.1764Z"
        fill="#191919" />
    <path
        d="M357.255 125.128L344.703 113.78C344.22 113.297 344.22 112.573 344.703 112.09L346.151 110.641C346.634 110.158 347.358 110.158 347.841 110.641L360.393 121.99C360.876 122.472 360.876 123.197 360.393 123.68L358.945 125.128C358.462 125.611 357.497 125.611 357.255 125.128Z"
        fill="#191919" />
    <path
        d="M353.393 129.233L340.841 117.885C340.358 117.402 340.358 116.677 340.841 116.194L342.289 114.746C342.772 114.263 343.496 114.263 343.979 114.746L356.531 126.094C357.014 126.577 357.014 127.301 356.531 127.784L355.083 129.233C354.6 129.716 353.876 129.716 353.393 129.233Z"
        fill="#191919" />
    <path
        d="M361.359 107.26L360.635 106.053C361.842 105.329 364.014 103.639 365.704 101.948C363.773 101.707 361.842 100.741 360.635 99.2924C359.428 97.6022 359.186 95.912 360.152 93.9804C361.118 91.8072 362.807 91.8073 363.773 92.0487C366.428 92.7731 368.842 96.6364 368.842 99.2924C368.842 99.7754 368.601 100.017 368.601 100.5C371.497 99.7754 373.428 97.8437 374.153 95.1876C373.187 95.1876 371.98 94.9462 370.773 94.4633C368.601 93.256 366.428 90.8414 366.428 88.1854C366.428 86.4952 367.635 85.0464 369.325 85.0464C371.98 84.805 374.877 86.9781 375.601 90.8414C375.842 91.5658 375.842 92.2902 375.842 92.7731C377.773 90.6 376.808 86.2537 376.325 84.3221C375.601 81.1831 381.877 76.8369 383.084 76.1125L383.808 77.3198C380.912 79.01 377.291 82.3904 377.532 83.8391C378.015 86.2537 379.463 91.8073 375.842 94.2218C375.601 94.2218 375.36 94.4633 375.36 94.4633C374.877 98.3266 372.463 100.983 368.359 101.948C368.118 101.948 367.635 102.19 367.152 102.19C365.704 104.604 362.083 107.019 361.359 107.26ZM363.773 93.4974C363.531 93.4974 363.531 93.256 363.29 93.256C362.807 93.0146 362.083 93.0146 361.359 94.4633C360.393 96.1535 361.118 97.3607 361.6 98.3266C362.566 99.5338 364.738 100.5 366.428 100.5C366.67 100.017 366.911 99.5339 366.911 99.051C367.152 97.1193 365.463 94.4632 363.773 93.4974ZM370.773 86.7366C370.29 86.4952 369.566 86.4952 369.325 86.2537C368.842 86.2537 367.876 86.4952 367.876 87.7025C367.876 89.6341 369.566 91.8072 371.256 92.7731C372.221 93.256 373.187 93.4974 373.911 93.4974C373.911 92.773 373.911 91.8073 373.67 90.8414C373.428 88.6683 372.222 87.2196 370.773 86.7366Z"
        fill="#C95B5E" />
    <path
        d="M328.288 75.8711C328.288 75.8711 345.668 76.837 346.634 78.7686C347.599 80.7003 331.185 85.7709 329.253 84.805C327.564 83.8392 324.426 76.8369 328.288 75.8711Z"
        fill="#F9CE66" />
    <path
        d="M344.944 44.2403C344.944 44.2403 356.772 57.5204 356.29 59.6935C355.807 61.8666 339.875 53.6571 339.151 51.484C338.427 49.5523 341.323 42.0672 344.944 44.2403Z"
        fill="#F9CE66" />
    <path
        d="M375.601 30.9599C375.601 30.9599 374.152 47.379 372.221 48.3449C370.531 49.3107 365.945 33.3745 366.91 31.6843C368.117 29.9941 374.876 27.3381 375.601 30.9599Z"
        fill="#F9CE66" />
    <path
        d="M438.604 72.4907C438.604 72.4907 422.431 75.871 420.982 74.4223C419.534 72.9735 433.535 64.0396 435.466 64.5225C437.397 64.764 442.225 70.8005 438.604 72.4907Z"
        fill="#F9CE66" />
    <path
        d="M429.431 112.09C429.431 112.09 417.361 100.983 417.603 99.051C417.844 97.1194 433.293 103.156 434.017 104.846C434.741 106.778 432.81 113.78 429.431 112.09Z"
        fill="#F9CE66" />
    <path
        d="M402.154 136.96C402.154 136.96 398.774 120.782 400.223 119.333C401.671 117.885 410.602 131.889 410.12 133.821C409.878 135.511 404.085 140.34 402.154 136.96Z"
        fill="#F9CE66" />
    <path
        d="M377.29 137.925C377.29 137.925 382.118 122.231 384.049 121.506C386.222 121.023 387.187 137.442 385.739 138.891C384.532 140.823 377.049 141.789 377.29 137.925Z"
        fill="#F9CE66" />
    <path
        d="M413.74 36.2721C413.74 36.2721 405.292 50.518 403.361 50.518C401.188 50.7595 404.085 34.3404 405.775 33.1331C407.223 32.1673 414.706 32.6502 413.74 36.2721Z"
        fill="#F9CE66" />
</svg>