<svg viewBox="0 0 488 467" fill="none" xmlns="http://www.w3.org/2000/svg">
    <path
        d="M299.893 271.987L246.787 254.603C246.787 254.603 182.577 285.268 119.815 315.691C137.919 322.452 159.644 329.454 162.058 323.659C166.162 314.001 194.405 283.819 194.405 283.819C194.405 283.819 250.649 291.063 266.822 292.753L299.893 271.987Z"
        fill="#FFFF00" />
    <path
        d="M338.274 402.133C345.757 400.926 349.378 407.445 350.343 415.654L487.936 333.8L426.864 313.76C430.968 319.313 431.45 329.213 428.312 337.905C423.967 350.22 414.07 349.254 414.07 349.254C380.034 369.295 339.963 355.29 339.963 355.29C309.307 382.333 274.063 389.577 274.063 389.577C294.099 411.308 313.652 420.001 327.652 423.381C325.963 414.447 326.445 404.065 338.274 402.133Z"
        fill="#FFFF00" />
    <path
        d="M415.76 310.138L377.138 297.582C371.827 322.935 352.274 346.598 352.274 346.598C383.414 352.393 407.794 336.939 407.794 336.939C404.656 323.901 408.518 312.794 415.76 310.138Z"
        fill="#FFFF00" />
    <path
        d="M253.063 392.957C253.063 392.957 197.06 407.686 140.333 376.78C110.642 360.602 93.7446 344.425 84.5718 332.835C38.2247 355.29 0.0849609 374.124 0.0849609 375.09L265.132 466.119L316.548 435.454C277.685 424.83 253.063 392.957 253.063 392.957Z"
        fill="#FFFF00" />
    <g opacity="0.5">
        <path
            d="M409.001 316.416C393.069 325.832 375.448 336.456 357.102 347.322C363.861 348.288 370.379 348.046 376.172 347.322C387.035 340.803 397.414 334.766 406.587 329.213C406.587 324.384 407.311 319.796 409.001 316.416Z"
            fill="#F2B42C" />
        <path
            d="M342.377 356.256C338.998 358.429 335.377 360.361 331.997 362.534C321.617 370.502 310.996 376.297 301.823 380.402C294.099 384.989 286.133 389.577 278.65 394.165C281.064 396.579 283.478 398.994 285.892 401.167C294.823 395.855 304.237 390.301 314.376 384.265C328.618 375.814 342.86 367.363 356.619 359.395C349.86 358.188 345.032 356.98 342.377 356.256Z"
            fill="#F2B42C" />
        <path
            d="M262.718 403.34C236.407 418.793 212.992 432.556 196.094 442.456L208.164 446.561C211.302 444.871 214.44 442.939 218.061 440.766C232.061 432.556 249.683 422.174 270.201 410.101C267.305 407.928 264.891 405.513 262.718 403.34Z"
            fill="#F2B42C" />
        <path
            d="M427.105 313.76C427.588 314.484 428.071 315.208 428.554 316.174C429.278 315.691 430.002 315.208 430.726 314.967L427.105 313.76Z"
            fill="#F2B42C" />
        <path
            d="M161.575 386.438L117.401 415.654L128.988 419.759L173.404 390.301C169.541 389.094 165.438 387.645 161.575 386.438Z"
            fill="#F2B42C" />
        <path
            d="M111.366 358.188L55.8462 394.406L67.4329 398.511L119.815 364.465C116.918 362.292 114.021 360.119 111.366 358.188Z"
            fill="#F2B42C" />
        <path
            d="M235.2 289.372L274.305 263.778L262.477 259.915L219.992 287.441C225.061 287.924 230.131 288.648 235.2 289.372Z"
            fill="#F2B42C" />
    </g>
    <g opacity="0.5">
        <path
            d="M288.306 452.356L298.685 446.078L58.2601 345.39C54.1565 347.322 50.5356 349.254 46.6733 350.944L288.306 452.356Z"
            fill="#F2B42C" />
        <path
            d="M187.887 291.063L178.473 287.682C174.611 289.614 170.507 291.546 166.403 293.477L180.887 298.789C183.542 295.892 185.956 293.236 187.887 291.063Z"
            fill="#F2B42C" />
        <path
            d="M340.205 355.531C339.481 356.256 338.756 356.739 338.032 357.463L405.622 382.816L416.243 376.538L373.034 360.361C354.447 360.602 340.205 355.531 340.205 355.531Z"
            fill="#F2B42C" />
        <path
            d="M407.07 323.659L373.034 311.586C371.827 314.725 370.379 317.623 368.93 320.52L407.311 334.283C406.587 330.42 406.587 326.798 407.07 323.659Z"
            fill="#F2B42C" />
        <path
            d="M430.002 331.869C429.761 334.042 429.036 335.974 428.554 338.147C428.071 339.354 427.588 340.32 427.347 341.286L457.762 352.151L468.625 345.632L430.002 331.869Z"
            fill="#F2B42C" />
        <path
            d="M286.133 280.68L232.303 261.605C228.682 263.295 224.579 265.227 219.992 267.4L275.512 287.199L286.133 280.68Z"
            fill="#F2B42C" />
        <path d="M349.136 409.376C349.86 411.308 350.343 413.481 350.585 415.654L355.895 412.515L349.136 409.376Z"
            fill="#F2B42C" />
        <path
            d="M334.411 403.34L291.202 384.748C284.926 387.162 280.098 388.611 277.202 389.335L327.652 411.067C328.618 407.445 330.79 404.789 334.411 403.34Z"
            fill="#F2B42C" />
    </g>
    <path
        d="M354.205 295.167C344.55 297.34 334.653 296.616 329.583 295.892C326.928 298.789 323.307 300.479 319.445 300.479C311.721 300.479 305.686 294.201 305.686 286.716C305.686 278.99 311.962 272.953 319.445 272.953C326.687 272.953 332.721 278.507 333.204 285.75C338.032 286.475 350.343 287.441 359.516 281.887C366.758 277.541 370.861 271.022 373.034 266.675C373.758 243.012 368.689 217.177 356.861 189.892C336.584 143.532 305.444 123.974 278.167 116.248L266.58 117.213C272.374 119.628 282.029 132.184 282.029 132.184L236.648 132.908C244.855 147.637 238.82 159.227 238.82 159.227C220.233 142.808 201.888 146.671 201.888 146.671C204.06 162.849 195.611 177.578 195.611 177.578C182.576 172.266 160.851 147.154 160.851 147.154C155.299 148.12 129.47 168.161 129.47 168.161C125.125 157.054 124.401 147.878 125.125 141.118C76.8471 176.129 59.9498 238.666 77.5713 292.511C102.193 367.121 171.955 393.199 248.959 385.955C242.441 377.504 236.648 365.431 236.648 365.431L245.338 362.292C249.442 370.985 257.407 380.16 261.753 384.506C263.925 384.265 265.856 384.023 268.029 383.541C319.445 375.331 357.102 341.768 368.93 294.443C369.896 291.545 370.378 288.648 370.861 286.233C366.999 289.614 361.206 293.477 354.205 295.167ZM291.444 314.484C290.478 314.484 289.512 314.484 288.547 314.242C281.547 320.52 265.615 331.144 241.234 330.661C207.198 329.696 186.68 317.864 186.68 317.864L192.232 308.206C192.232 308.206 214.681 320.762 241.476 319.072C261.27 317.864 273.098 311.103 278.167 307.723C276.477 305.308 275.512 302.411 275.512 299.272C275.512 290.58 282.512 283.819 290.961 283.819C299.651 283.819 306.41 290.821 306.41 299.272C307.134 307.482 300.134 314.484 291.444 314.484Z"
        fill="#CF433B" />
    <path
        d="M293.133 267.883C296.333 267.883 298.927 265.288 298.927 262.088C298.927 258.887 296.333 256.293 293.133 256.293C289.934 256.293 287.34 258.887 287.34 262.088C287.34 265.288 289.934 267.883 293.133 267.883Z"
        fill="black" />
    <path
        d="M419.381 315.45C406.828 315.691 412.38 335.732 414.07 341.044C409.484 343.942 400.793 348.046 385.103 351.427C356.619 357.705 332.721 343.942 332.48 343.942L331.273 346.115C331.514 346.115 347.929 355.531 369.895 355.531C374.965 355.531 380.034 355.049 385.586 353.841C401.276 350.461 409.966 346.356 415.036 343.217C421.07 353.358 433.381 315.208 419.381 315.45Z"
        fill="black" />
    <path
        d="M179.68 104.899C179.68 104.899 175.093 87.9971 153.368 70.6121C153.368 70.6121 160.61 48.881 175.817 50.0883C175.817 50.0883 191.749 62.6441 197.301 92.8262C197.301 92.8262 216.854 75.4413 238.338 75.9242C238.338 75.9242 224.337 83.6508 217.095 102.002C217.095 102.002 251.856 91.136 274.063 102.485C274.063 102.485 257.166 115.282 241.234 115.04C241.234 115.04 258.856 117.696 265.615 124.699C265.615 124.699 228.199 124.699 218.785 126.147C218.785 126.147 230.372 130.977 232.544 146.913C232.544 146.913 213.233 130.011 191.266 136.289C191.266 136.289 197.301 155.847 192.473 165.263C192.473 165.263 172.679 154.881 168.576 131.459C168.576 131.459 141.057 143.291 131.402 158.02C131.402 158.02 128.988 133.633 156.265 118.421C156.265 118.421 141.54 113.592 129.229 118.179C129.47 118.421 156.023 91.6189 179.68 104.899Z"
        fill="#40803C" />
    <path
        d="M348.895 236.493C354.894 236.493 359.757 231.628 359.757 225.628C359.757 219.627 354.894 214.762 348.895 214.762C342.896 214.762 338.032 219.627 338.032 225.628C338.032 231.628 342.896 236.493 348.895 236.493Z"
        fill="black" />
    <path
        d="M207.922 265.71C213.921 265.71 218.785 260.845 218.785 254.844C218.785 248.843 213.921 243.979 207.922 243.979C201.923 243.979 197.06 248.843 197.06 254.844C197.06 260.845 201.923 265.71 207.922 265.71Z"
        fill="black" />
    <path
        d="M278.65 273.919L297.961 316.416C297.961 316.416 302.548 324.142 317.997 316.416C332.48 309.172 333.687 306.999 331.756 300.721C330.066 295.65 314.376 261.605 314.376 261.605L278.65 273.919Z"
        fill="#F2D4C7" />
    <path
        d="M278.546 273.77C279.77 277.298 288.828 277.359 298.778 273.907C308.729 270.454 315.804 264.796 314.581 261.268C313.357 257.74 304.299 257.679 294.349 261.131C284.398 264.584 277.323 270.242 278.546 273.77Z"
        fill="#8A9332" />
    <path
        d="M298.203 266.434C304.479 264.261 310.272 263.536 314.134 264.019C314.617 263.053 314.617 262.087 314.376 261.363C313.169 257.741 304.237 257.741 294.34 261.122C284.443 264.502 277.443 270.056 278.65 273.677C279.133 274.885 280.581 275.851 282.754 276.092C284.443 272.953 290.478 269.09 298.203 266.434Z"
        fill="#E5BDAE" />
    <path
        d="M289.03 290.097C284.202 291.545 281.305 296.616 282.754 301.445C283.478 303.86 285.167 305.791 287.099 306.999C268.753 322.935 246.304 324.384 230.13 322.693C210.578 320.52 195.129 313.518 195.129 313.518L194.163 315.691C194.404 315.691 209.853 323.176 229.889 325.108C241.717 326.315 252.821 325.591 262.959 322.693C273.098 319.796 282.029 314.967 289.754 307.965C291.202 308.206 292.892 308.206 294.34 307.723C299.168 306.274 302.065 301.204 300.616 296.374C299.168 291.545 293.857 288.889 289.03 290.097Z"
        fill="black" />
    <path
        d="M378.344 259.673C377.62 253.154 374.482 247.842 371.344 243.979L370.861 247.359C373.275 250.739 375.448 255.085 375.93 259.915C376.654 267.4 373.516 274.643 366.757 281.163C354.447 292.994 338.273 291.304 328.618 288.889C329.583 284.06 326.687 279.231 321.859 278.024C316.79 276.817 311.72 279.714 310.513 284.785C309.306 289.855 312.203 294.926 317.272 296.133C321.617 297.34 325.962 295.167 327.894 291.304C328.135 291.304 328.135 291.304 328.376 291.304C338.515 293.96 355.412 295.65 368.447 283.094C375.93 275.851 379.068 268.124 378.344 259.673Z"
        fill="black" />
    <path
        d="M335.136 433.039C335.136 433.039 324.273 411.55 338.515 409.377C352.998 407.203 345.998 447.768 335.136 433.039Z"
        fill="black" />
    <path
        d="M339.963 433.764C305.686 429.659 280.822 412.274 266.339 398.511C250.407 383.541 242.683 369.295 242.683 369.053L244.855 367.846C244.855 368.087 252.58 381.85 268.27 396.821C282.754 410.342 306.893 427.486 340.446 431.591L339.963 433.764Z"
        fill="black" />
    <path
        d="M379.069 0.106716C340.205 -0.617656 307.858 30.2888 307.134 69.1634C306.41 108.038 337.308 140.393 376.172 141.118C415.036 141.842 447.382 110.935 448.106 72.0609C448.831 33.1863 417.932 1.07254 379.069 0.106716ZM376.172 133.149C341.653 132.425 314.376 103.933 315.1 69.4048C315.824 34.8764 344.308 7.5918 378.827 8.31617C413.346 9.04054 440.623 37.5325 439.899 72.0609C439.175 106.589 410.691 133.874 376.172 133.149Z"
        fill="#CF433B" />
    <path
        d="M387.759 132.425C388 132.425 388.242 132.425 388.483 132.184C388.724 132.184 388.966 132.184 388.966 131.942C389.207 131.942 389.69 131.701 389.931 131.701C390.173 131.701 390.173 131.701 390.414 131.459C390.897 131.459 391.138 131.218 391.621 131.218H391.862C392.345 130.976 392.828 130.976 393.311 130.735C393.552 130.735 393.552 130.735 393.794 130.494C394.035 130.494 394.518 130.252 394.759 130.252C395 130.252 395.242 130.011 395.242 130.011C395.483 130.011 395.725 129.769 396.207 129.769C396.449 129.769 396.69 129.528 396.69 129.528C396.932 129.528 397.173 129.286 397.414 129.286C397.656 129.286 397.897 129.045 397.897 129.045C398.139 128.803 398.38 128.803 398.621 128.803C398.863 128.803 399.104 128.562 399.104 128.562C399.346 128.32 399.587 128.32 399.828 128.32C400.07 128.32 400.311 128.079 400.311 128.079C400.553 127.837 401.035 127.837 401.277 127.596C401.518 127.596 401.518 127.354 401.759 127.354C402.242 127.113 402.725 126.872 402.966 126.872C403.449 126.63 403.691 126.389 404.173 126.389C404.415 126.389 404.415 126.147 404.656 126.147C404.898 125.906 405.139 125.906 405.622 125.664C405.863 125.664 405.863 125.423 406.104 125.423C406.346 125.181 406.587 125.181 406.829 124.94C407.07 124.94 407.07 124.698 407.311 124.698C407.553 124.457 407.794 124.457 408.036 124.216C408.277 123.974 408.277 123.974 408.518 123.974C408.76 123.733 409.001 123.733 409.242 123.491C409.484 123.25 409.484 123.25 409.725 123.25C409.967 123.008 410.208 123.008 410.449 122.767C410.691 122.525 410.691 122.525 410.932 122.525C411.174 122.284 411.415 122.043 411.898 122.043C412.139 122.043 412.139 121.801 412.139 121.801C412.622 121.56 412.863 121.318 413.346 121.077L413.588 120.835C413.829 120.594 414.312 120.352 414.553 120.111C414.794 119.869 414.795 119.869 415.036 119.869C415.277 119.628 415.519 119.386 415.76 119.386C416.001 119.145 416.001 119.145 416.243 118.903C416.484 118.662 416.726 118.421 416.967 118.421C417.208 118.179 417.208 118.179 417.45 117.938C417.691 117.696 417.933 117.455 418.174 117.455C418.415 117.213 418.415 117.213 418.657 116.972C418.898 116.73 419.14 116.489 419.381 116.489C419.622 116.247 419.622 116.248 419.864 116.006C420.105 115.765 420.346 115.523 420.588 115.282C420.829 115.04 420.829 115.04 421.071 114.799C421.312 114.557 421.553 114.316 421.795 114.074L422.036 113.833C422.278 113.591 422.76 113.108 423.002 112.867C423.002 112.626 423.243 112.626 423.243 112.626C423.485 112.384 423.726 112.143 423.967 111.901C424.209 111.66 424.209 111.66 424.45 111.418C424.692 111.177 424.933 110.935 424.933 110.694C425.174 110.453 425.174 110.453 425.416 110.211C425.657 109.97 425.899 109.728 425.899 109.487C426.14 109.245 426.14 109.245 426.381 109.004C426.623 108.762 426.864 108.521 426.864 108.279C427.106 108.038 427.105 108.038 427.347 107.796C427.588 107.555 427.83 107.314 427.83 107.072C428.071 106.831 428.071 106.831 428.071 106.589C428.312 106.348 428.554 106.106 428.554 105.865C428.554 105.623 428.795 105.623 428.795 105.382C429.037 104.899 429.278 104.658 429.519 104.175C429.761 103.692 430.002 103.45 430.244 102.967C430.244 102.726 430.485 102.726 430.485 102.484C430.726 102.243 430.726 102.002 430.968 101.76C431.209 101.519 431.209 101.519 431.209 101.277C431.451 101.036 431.451 100.794 431.692 100.553C431.933 100.311 431.933 100.311 431.933 100.07C432.175 99.8284 432.175 99.587 432.416 99.3455C432.657 99.104 432.657 98.8626 432.657 98.8626C432.899 98.6211 432.899 98.3797 433.14 98.1382C433.14 97.8968 433.382 97.6553 433.382 97.6553C433.623 97.4138 433.623 97.1724 433.864 96.9309C433.864 96.6895 434.106 96.6894 434.106 96.448C434.347 96.2065 434.347 95.7237 434.589 95.4822C434.589 95.2408 434.83 95.2408 434.83 94.9993C435.071 94.5164 435.313 94.0335 435.313 93.792C435.313 93.792 435.313 93.5505 435.554 93.5505C435.796 93.0676 435.796 92.8262 436.037 92.5847C436.037 92.3433 436.278 92.3432 436.278 92.1018C436.52 91.8603 436.52 91.6188 436.52 91.1359C436.52 90.8944 436.761 90.6531 436.761 90.6531C437.002 90.4116 437.002 90.1701 437.002 89.9286C437.002 89.6872 437.244 89.4458 437.244 89.4458C437.244 89.2044 437.485 88.9628 437.485 88.7213C437.485 88.4799 437.727 88.2385 437.727 88.2385C437.727 87.9971 437.968 87.7556 437.968 87.2726C437.968 87.0312 438.209 86.7897 438.209 86.7897C438.209 86.5482 438.451 86.0654 438.451 85.824C438.451 85.5825 438.451 85.5825 438.692 85.341C438.934 84.8581 438.934 84.6166 438.934 84.1337V83.8922C439.175 83.4093 439.175 82.9264 439.175 82.4435C439.175 82.202 439.175 82.202 439.175 81.9606C439.175 81.4776 439.416 81.2363 439.416 80.9948C439.416 80.7534 439.416 80.5119 439.416 80.5119C439.416 80.2704 439.658 79.7874 439.658 79.546C439.658 79.3045 439.658 79.0631 439.658 78.8216C439.658 78.5802 439.658 78.0972 439.899 77.8558C439.899 77.6143 439.899 77.3729 439.899 77.1314C439.899 76.89 439.899 76.4071 440.141 76.1657C440.141 75.9242 440.141 75.6826 440.141 75.4412C440.141 75.1997 440.141 74.7169 440.141 74.4754C440.141 74.234 440.141 73.9925 440.141 73.9925C440.141 73.751 440.141 73.2681 440.141 73.0266C440.141 72.7852 440.141 72.7853 440.141 72.5438C440.141 72.0609 440.141 71.5779 440.141 71.095C440.141 70.6121 440.141 70.1292 440.141 69.6463C440.141 69.4048 440.141 69.4048 440.141 69.1634C440.141 68.9219 440.141 68.4389 440.141 68.1975C440.141 67.956 440.141 67.7147 440.141 67.7147C440.141 67.4732 440.141 66.9902 440.141 66.7488C440.141 66.5073 440.141 66.2659 440.141 66.0244C440.141 65.783 440.141 65.3 440.141 65.0586C440.141 64.8171 440.141 64.5757 440.141 64.3342C440.141 64.0928 440.141 63.6098 440.141 63.3683C440.141 63.1269 440.141 62.8854 440.141 62.644C440.141 62.4025 440.141 61.9197 439.899 61.6783C439.899 61.4368 439.899 61.1953 439.899 61.1953C439.899 60.7124 439.658 60.4709 439.658 60.2294C439.658 59.988 439.658 59.9879 439.658 59.7465C439.658 59.2636 439.416 58.7807 439.416 58.2978C439.416 58.0563 439.416 58.0564 439.416 58.0564C439.416 57.5735 439.175 57.332 439.175 56.8491C439.175 56.6077 439.175 56.6076 438.934 56.3662C438.934 56.1247 438.692 55.6417 438.692 55.4003C438.692 55.1588 438.692 54.9173 438.451 54.9173C438.451 54.6759 438.209 54.4345 438.209 53.9516C438.209 53.7101 437.968 53.4687 437.968 53.4687C437.968 53.2272 437.727 52.9858 437.727 52.7443C437.727 52.5029 437.485 52.2614 437.485 52.2614C437.485 52.0199 437.244 51.7784 437.244 51.2955C437.244 51.054 437.002 50.8127 437.002 50.8127C436.761 50.5712 436.761 50.0883 436.761 49.8468C436.761 49.6053 436.52 49.6053 436.52 49.3639C436.278 48.8809 436.278 48.6396 436.037 48.3981C436.037 48.3981 436.037 48.1566 435.795 48.1566C435.554 47.6737 435.554 47.1908 435.313 46.7079C435.313 46.4664 435.071 46.4664 435.071 46.2249C434.83 45.9835 434.83 45.5005 434.589 45.2591C434.589 45.0176 434.347 45.0177 434.347 44.7763C434.106 44.5348 434.106 44.2932 433.864 44.0518C433.864 43.8103 433.623 43.569 433.623 43.569C433.382 43.3275 433.382 43.0859 433.14 42.8445C433.14 42.603 432.899 42.3617 432.899 42.3617C432.658 42.1202 432.657 41.8787 432.416 41.6372C432.416 41.3957 432.175 41.1544 432.175 41.1544C431.933 40.9129 431.933 40.6714 431.692 40.4299C431.692 40.1885 431.45 40.1886 431.45 39.9471C431.209 39.7057 431.209 39.4641 430.968 39.2226C430.968 38.9812 430.726 38.9813 430.726 38.7398C430.485 38.2569 430.244 38.0155 430.002 37.5325C429.761 37.0496 429.519 36.8082 429.278 36.3253C429.278 36.0838 429.037 36.0838 429.037 35.8423C428.795 35.6009 428.554 35.3594 428.554 35.118C428.312 34.8765 428.312 34.8765 428.312 34.635C428.071 34.3936 428.071 34.1521 427.83 33.9107C427.588 33.6692 427.588 33.6692 427.588 33.4277C427.347 33.1863 427.347 32.9449 427.105 32.7034C426.864 32.4619 426.864 32.4619 426.623 32.2205C426.381 31.979 426.14 31.7376 426.14 31.4961C425.898 31.2547 425.899 31.2546 425.657 31.0132C425.416 30.7717 425.174 30.5303 425.174 30.2888C424.933 30.0474 424.933 30.0473 424.933 29.8059C424.691 29.5644 424.45 29.323 424.209 29.0815C424.209 28.8401 423.967 28.84 423.967 28.84C423.726 28.3571 423.243 28.1157 423.002 27.8743L422.76 27.6327C422.519 27.3913 422.278 27.1499 422.036 26.667C421.795 26.4255 421.795 26.4255 421.554 26.184C421.312 25.9426 421.071 25.7011 420.829 25.4597C420.588 25.2182 420.588 25.2182 420.347 24.9767C420.105 24.7353 419.864 24.4939 419.622 24.2524C419.381 24.0109 419.381 24.0109 419.14 23.7695C418.898 23.528 418.657 23.2865 418.415 23.2865C418.174 23.0451 418.174 23.045 417.933 22.8036C417.691 22.5621 417.45 22.3206 417.208 22.3206C416.967 22.0792 416.967 22.0793 416.726 21.8378C416.484 21.5964 416.243 21.3549 416.002 21.3549C415.76 21.1134 415.76 21.1133 415.519 21.1133C415.277 20.8719 415.036 20.6305 414.553 20.389L414.312 20.1476C413.829 19.9061 413.588 19.6646 413.105 19.1817C412.863 19.1817 412.863 18.9403 412.863 18.9403C412.622 18.6989 412.381 18.4574 412.139 18.216C411.898 17.9745 411.898 17.9744 411.656 17.9744C411.415 17.733 411.174 17.7329 410.932 17.4915C410.691 17.25 410.691 17.2501 410.449 17.2501C410.208 17.0086 409.967 17.0086 409.725 16.7671C409.484 16.5257 409.484 16.5257 409.242 16.5257C409.001 16.2843 408.76 16.2843 408.518 16.0428C408.277 15.8013 408.277 15.8014 408.036 15.8014C407.794 15.5599 407.553 15.5599 407.311 15.3185C407.07 15.3185 407.07 15.0769 406.829 15.0769C406.587 14.8355 406.346 14.8356 406.104 14.5941C405.863 14.5941 405.863 14.3526 405.622 14.3526C405.139 14.1111 404.897 13.8697 404.415 13.6282C403.932 13.3868 403.449 13.1453 403.208 12.9039C402.966 12.9039 402.966 12.6623 402.725 12.6623C402.484 12.4209 402.242 12.421 401.759 12.1796C401.518 12.1796 401.518 11.938 401.277 11.938C401.035 11.6965 400.794 11.6965 400.552 11.4551C400.311 11.4551 400.07 11.2137 400.07 11.2137C399.828 10.9722 399.587 10.9723 399.346 10.9723C399.104 10.9723 398.863 10.7307 398.863 10.7307C398.621 10.4893 398.38 10.4893 398.139 10.4893C397.897 10.4893 397.656 10.2478 397.656 10.2478C397.414 10.0063 397.173 10.0064 396.69 10.0064C396.449 10.0064 396.207 9.76498 396.207 9.76498C395.966 9.52352 395.483 9.52343 395.242 9.52343C395 9.52343 395 9.52349 394.759 9.28204C394.276 9.04058 393.794 9.04055 393.311 8.79909H393.069C392.587 8.55764 392.345 8.55769 391.862 8.55769C391.621 8.55769 391.621 8.55761 391.38 8.31615C391.138 8.31615 390.655 8.07475 390.414 8.07475C390.173 8.07475 389.931 8.07466 389.931 7.83321C386.069 6.86738 381.965 6.38452 377.862 6.38452L375.448 120.594C376.413 128.562 381.724 133.15 387.759 132.425Z"
        fill="#40803C" />
    <path d="M406.104 126.389L377.62 70.8538L376.413 133.391C387.034 133.391 397.173 130.977 406.104 126.389Z"
        fill="#FFFF00" />
    <path
        d="M382.207 112.867V104.175L390.897 102.968L391.138 105.141L384.62 106.106C384.62 106.831 384.62 107.797 384.62 108.521V109.487C385.103 109.245 385.586 109.004 386.069 108.763C386.552 108.521 386.793 108.521 387.034 108.521C387.759 108.28 388.483 108.521 389.207 108.763C389.931 109.004 390.414 109.245 390.897 109.728C391.379 110.211 391.862 110.694 392.345 111.177C392.828 111.66 392.828 112.384 393.069 113.109C393.069 113.833 393.069 114.557 393.069 115.282C392.828 116.006 392.586 116.489 392.345 116.972C391.862 117.455 391.379 117.938 390.655 118.421C389.931 118.904 389.207 119.145 388.241 119.145C387.034 119.387 385.827 119.145 384.62 118.421C383.413 117.696 382.689 116.731 382.207 115.04L384.862 114.557C385.345 115.282 385.586 116.006 386.31 116.248C386.793 116.731 387.517 116.731 388 116.731C388.483 116.731 388.724 116.489 389.207 116.248C389.69 116.006 389.931 115.765 390.172 115.523C390.414 115.282 390.655 114.799 390.655 114.316C390.897 113.833 390.897 113.592 390.655 113.109C390.655 112.626 390.414 112.143 390.172 111.901C389.931 111.419 389.69 111.177 389.448 110.936C389.207 110.694 388.724 110.453 388.483 110.453C388 110.211 387.758 110.211 387.276 110.453C386.793 110.453 386.31 110.694 386.069 110.936C385.586 111.177 385.345 111.66 384.862 112.143L382.207 112.867Z"
        fill="black" />
    <path
        d="M400.552 42.6031C401.759 41.6373 402.966 41.1543 404.414 40.9129C405.621 40.43 407.07 40.4299 408.277 40.4299C409.484 40.4299 410.691 40.9128 411.898 41.6372C413.105 42.3616 414.07 43.086 415.036 44.2933C416.001 45.5006 416.726 46.7079 417.208 47.9152C417.691 49.1225 417.932 50.3297 417.691 51.2955C417.691 52.5028 417.208 53.4687 416.725 54.4346C416.243 55.4004 415.519 56.1248 414.794 56.8491C413.829 57.815 412.622 58.2978 411.656 58.5392C410.449 58.7807 409.242 59.0222 408.277 58.7808C407.07 58.5393 405.863 58.2979 404.656 58.0564C403.449 57.815 402.242 57.332 401.035 57.0905C399.828 56.8491 398.621 56.6076 397.414 56.3662C396.207 56.1247 395 56.3661 393.793 56.6076L403.208 67.2318L399.828 70.1293L386.793 55.1589L389.448 52.7443C390.414 51.7785 391.621 51.2956 392.828 51.0541C394.035 50.8126 395.483 51.054 396.69 51.2955C398.138 51.537 399.345 52.0199 400.794 52.2614C402.242 52.7443 403.449 53.2272 404.897 53.4687C406.346 53.7101 407.311 53.9516 408.518 53.9516C409.725 53.9516 410.691 53.4687 411.415 52.7443C412.622 51.7785 413.346 50.5712 413.346 49.3639C413.346 48.1566 413.105 47.1908 412.139 46.225C411.173 45.0177 409.966 44.5347 408.518 44.5347C407.07 44.5347 405.621 45.0177 404.173 46.225L400.552 42.6031Z"
        fill="black" />
    <path
        d="M412.139 65.3002L425.415 56.3662L436.278 68.6805L433.381 71.3366L425.174 62.1611C423.967 63.1269 422.76 63.8513 421.553 64.5757L420.105 65.5415C421.07 66.0245 421.794 66.5074 422.519 67.2318C423.243 67.7147 423.484 68.1975 423.967 68.6805C424.933 69.6463 425.657 70.8536 425.898 72.0609C426.381 73.2682 426.381 74.4755 426.381 75.6828C426.14 76.8901 425.898 78.0973 425.415 79.3046C424.933 80.5119 423.967 81.4777 423.001 82.4435C422.036 83.1679 420.829 83.8923 419.863 84.3752C418.656 84.8581 417.449 85.0995 416.243 85.0995C415.036 85.0995 413.587 84.6167 412.38 84.1338C411.173 83.4094 409.725 82.4435 408.759 81.2363C407.07 79.3046 406.345 77.373 406.104 74.9584C405.863 72.5439 406.828 70.1293 408.518 67.7147L411.898 71.578C410.932 73.0267 410.691 74.2339 410.691 75.4412C410.691 76.6485 411.173 77.8559 411.656 78.5803C412.139 79.0632 412.863 79.5461 413.346 80.029C414.07 80.2704 414.794 80.5119 415.518 80.5119C416.243 80.5119 416.967 80.5119 417.691 80.029C418.415 79.7875 419.139 79.3046 419.863 78.8217C420.588 78.3388 421.07 77.6144 421.312 76.8901C421.553 76.1657 421.794 75.4413 421.794 74.7169C421.794 73.9925 421.795 73.2682 421.553 72.5439C421.312 71.8195 421.07 71.3365 420.588 70.8536C420.105 70.3707 419.381 69.8877 418.415 69.4048C417.45 68.9219 416.484 68.922 415.518 68.922L412.139 65.3002Z"
        fill="black" />
    <path
        d="M395 71.5779L395.724 72.3022L395.483 72.5438C395.724 72.5438 395.966 72.7852 396.207 72.7852C396.449 72.7852 396.69 73.0267 396.69 73.2681C396.931 73.5096 396.931 73.7511 396.931 73.7511C396.931 73.9925 396.931 74.2339 396.931 74.4754C397.173 74.4754 397.414 74.4753 397.655 74.7168C397.897 74.9583 398.138 74.9583 398.38 75.1997C398.621 75.4412 398.621 75.6827 398.862 75.6827C398.862 75.9241 399.104 76.1656 399.104 76.407C399.104 76.6485 399.104 76.89 398.862 76.89C398.862 77.1314 398.621 77.3729 398.38 77.3729L395.966 79.7875L395.241 79.063L397.655 76.89C397.897 76.6485 397.897 76.6484 397.897 76.6484C397.897 76.407 397.897 76.407 397.897 76.407V76.1656C397.897 76.1656 397.897 75.9241 397.655 75.9241L397.414 75.6827C397.173 75.6827 397.173 75.6827 396.931 75.6827C396.69 75.6827 396.69 75.6827 396.448 75.6827C396.207 75.6827 396.207 75.9241 395.966 75.9241L393.793 77.8557L393.069 77.1314L395.483 74.9583C395.724 74.7169 395.724 74.7168 395.724 74.7168C395.724 74.4753 395.724 74.4754 395.724 74.4754V74.2338C395.724 74.2338 395.724 73.9925 395.483 73.9925C395.242 73.751 395.242 73.7511 395 73.7511C394.759 73.7511 394.759 73.7511 394.517 73.7511C394.276 73.7511 394.276 73.7511 394.035 73.7511C393.793 73.7511 393.793 73.9925 393.793 73.9925L391.621 75.9241L390.896 75.1997L395 71.5779Z"
        fill="black" />
    <path
        d="M402.242 76.6484L401.518 77.3729L400.793 76.6484L401.518 75.9241L402.242 76.6484ZM401.035 77.8557L397.414 81.2362L396.69 80.5118L400.311 77.1314L401.035 77.8557Z"
        fill="black" />
    <path
        d="M401.518 78.5801L402.242 79.3044L402 79.5458C402.242 79.5458 402.483 79.7874 402.725 79.7874C402.966 80.0288 403.207 80.0287 403.207 80.2702C403.449 80.7531 403.69 80.9945 403.69 81.4774C403.69 81.9604 403.449 82.2019 403.207 82.4433L400.793 84.8579L400.069 84.1336L402.483 81.9604C402.724 81.7189 402.725 81.7189 402.725 81.4774C402.725 81.236 402.724 81.2361 402.483 80.9946C402.242 80.7532 402.242 80.7531 402 80.7531C401.759 80.7531 401.759 80.5117 401.518 80.5117C401.276 80.5117 401.276 80.5117 401.035 80.5117C400.793 80.5117 400.793 80.7531 400.552 80.7531L398.379 82.6847L397.655 81.9604L401.518 78.5801Z"
        fill="black" />
    <path
        d="M403.932 88.2384L403.208 87.5139L403.449 87.2725C403.208 87.2725 402.966 87.0311 402.725 87.0311C402.484 87.0311 402.242 86.7896 402.242 86.5482C402.001 86.0653 401.759 85.8238 401.759 85.3409C401.759 84.858 402.001 84.6165 402.242 84.375L404.656 81.9604L405.38 82.6848L402.966 84.858C402.725 85.0994 402.725 85.0995 402.725 85.3409C402.725 85.5824 402.725 85.5824 402.966 85.8239C403.208 86.0653 403.208 86.0652 403.449 86.0652C403.69 86.0652 403.69 86.3066 403.932 86.3066C404.173 86.3066 404.173 86.3066 404.415 86.3066C404.656 86.3066 404.656 86.0652 404.897 86.0652L407.07 84.1336L407.794 84.858L403.932 88.2384Z"
        fill="black" />
    <path
        d="M410.208 85.8239L409.242 86.7896L409.725 87.2725L409.001 87.9969L408.518 87.5139L406.587 89.4457C406.345 89.4457 406.345 89.6871 406.345 89.6871V89.9285C406.345 89.9285 406.345 89.9286 406.587 90.1701L406.828 90.4114L406.104 91.1358C405.863 91.1358 405.863 90.8944 405.621 90.8944C405.38 90.8944 405.38 90.653 405.38 90.653C405.138 90.4115 405.138 90.4115 405.138 90.1701C405.138 89.9286 404.897 89.9286 404.897 89.6871C404.897 89.4457 404.897 89.4456 404.897 89.2042C404.897 88.9627 405.138 88.9627 405.138 88.7212L407.311 86.7896L406.828 86.3067L407.552 85.5823L408.035 86.0653L409.001 85.0994L410.208 85.8239Z"
        fill="black" />
    <path
        d="M409.001 90.6531C408.759 90.8946 408.759 90.8945 408.759 91.1359C408.759 91.3774 408.518 91.3774 408.518 91.6189C408.518 91.8603 408.518 91.8603 408.518 92.1018C408.518 92.3433 408.759 92.3433 408.759 92.5847C409.242 93.0677 409.484 93.0676 410.208 92.8261L410.932 93.5505C410.69 93.7919 410.449 93.792 410.208 93.792C409.966 93.792 409.725 93.792 409.484 93.792C409.242 93.792 409.001 93.5505 408.759 93.5505C408.518 93.5505 408.277 93.3091 408.277 93.0677C408.035 92.8262 407.794 92.5847 407.794 92.3432C407.794 92.1017 407.552 91.6189 407.794 91.3775C407.794 91.136 408.035 90.653 408.035 90.4116C408.277 90.1701 408.518 89.9287 408.759 89.6872C409.001 89.4458 409.242 89.2043 409.484 89.2043C409.725 89.2043 409.966 88.9629 410.449 88.9629C410.932 88.9629 411.173 88.9628 411.415 89.2043C411.656 89.4457 411.897 89.4458 412.139 89.6872C412.38 89.9287 412.622 90.1701 412.622 90.4116C412.622 90.653 412.863 90.8945 412.863 91.3775C412.863 91.8604 412.622 91.8603 412.622 92.1018C412.38 92.3433 412.38 92.5847 412.139 92.8261L411.897 93.0677L409.001 90.6531ZM410.932 91.6189C411.173 91.3774 411.173 91.136 411.173 90.8945C411.173 90.6531 410.932 90.4116 410.932 90.1702C410.932 89.9287 410.691 89.9286 410.691 89.9286C410.449 89.9286 410.449 89.9286 410.208 89.9286C409.966 89.9286 409.966 89.9286 409.725 89.9286C409.484 89.9286 409.483 89.9287 409.242 90.1702L410.932 91.6189Z"
        fill="black" />
    <path
        d="M412.139 94.5164C411.897 94.7578 411.656 94.9993 411.656 95.2407C411.656 95.4822 411.656 95.7237 411.897 95.7237L412.139 95.9651L412.38 96.2066H412.622C412.622 96.2066 412.863 96.2065 412.863 95.9651C412.863 95.7236 413.104 95.7237 413.104 95.7237V95.4823C413.104 95.2408 413.104 95.2407 412.863 95.2407C412.863 94.9993 412.622 94.9992 412.622 94.7578C412.622 94.5163 412.38 94.2749 412.38 94.0334C412.38 93.792 412.139 93.5505 412.139 93.3091C412.139 93.0676 412.139 92.8261 412.139 92.8261C412.139 92.5847 412.38 92.3432 412.38 92.3432C412.622 92.1017 412.863 92.1018 412.863 92.1018C413.104 92.1018 413.346 92.1018 413.346 92.1018C413.587 92.1018 413.829 92.3432 413.829 92.3432C414.07 92.5847 414.311 92.5847 414.311 92.8261C414.553 93.0676 414.553 93.309 414.794 93.5505C415.036 93.7919 415.035 94.0335 415.035 94.275C415.035 94.5164 415.036 94.7579 414.794 94.9993C414.794 95.2408 414.553 95.4822 414.311 95.7237C414.311 95.7237 414.311 95.7237 414.311 95.4823C414.311 95.4823 414.311 95.4822 414.311 95.2407L413.829 94.7578C414.07 94.5163 414.07 94.275 414.07 94.275C414.07 94.0335 413.829 94.0335 413.829 93.792C413.587 93.5506 413.587 93.5505 413.346 93.5505C413.104 93.5505 413.104 93.5505 413.104 93.5505C412.863 93.7919 412.863 93.792 413.104 94.0334C413.104 94.2749 413.346 94.5163 413.346 94.7578C413.346 94.9992 413.587 95.2407 413.587 95.2407C413.587 95.4822 413.829 95.7237 413.829 95.7237C413.829 95.9651 413.829 96.2066 413.829 96.2066C413.829 96.4481 413.587 96.4481 413.587 96.6895C413.587 96.931 413.104 96.9309 412.863 97.1723C412.621 97.1723 412.38 97.1723 412.139 97.1723C411.897 97.1723 411.656 96.9309 411.415 96.9309C411.173 96.6895 410.932 96.6895 410.69 96.448C410.449 96.2065 410.449 95.9651 410.208 95.7237C409.966 95.4822 409.966 95.2408 409.966 94.9993C409.966 94.7579 409.966 94.5164 410.208 94.275C410.449 94.0335 410.449 93.7919 410.69 93.5505L412.139 94.5164Z"
        fill="black" />
    <path
        d="M380.758 123.974H381.483V124.216C381.724 123.974 381.724 123.974 381.724 123.974C381.965 123.974 381.965 123.974 382.207 123.974C382.448 123.974 382.448 123.974 382.69 123.974C382.931 123.974 382.931 124.216 383.172 124.216C383.414 123.974 383.414 123.974 383.655 123.974C383.897 123.974 383.897 123.733 384.138 123.733C384.379 123.733 384.379 123.733 384.621 123.733C384.862 123.733 384.862 123.733 384.862 123.974L385.103 124.216C385.103 124.457 385.345 124.457 385.345 124.699L385.586 126.63H384.862L384.621 124.699V124.457C384.621 124.457 384.621 124.216 384.379 124.216C384.138 124.216 384.379 124.216 384.138 124.216C384.138 124.216 384.138 124.216 383.896 124.216C383.655 124.216 383.655 124.216 383.655 124.216C383.655 124.216 383.414 124.216 383.414 124.457C383.414 124.457 383.414 124.699 383.172 124.699V124.94L383.414 126.63H382.69L382.448 124.699V124.457C382.448 124.457 382.448 124.216 382.207 124.216C382.207 124.216 382.207 124.216 381.965 124.216C381.724 124.216 381.965 124.216 381.724 124.216H381.483L381.241 124.457C381.241 124.457 381.241 124.699 381 124.699V124.94L381.241 126.63H380.517L380.758 123.974Z"
        fill="black" />
    <path
        d="M385.586 122.284L385.828 123.008L385.104 123.25L384.862 122.525L385.586 122.284ZM385.828 123.491L386.311 126.389L385.586 126.63L385.104 123.733L385.828 123.491Z"
        fill="black" />
    <path
        d="M386.311 123.25L387.035 123.008V123.25C387.276 123.008 387.276 123.008 387.518 123.008C387.759 123.008 387.759 122.767 388 122.767C388.242 122.767 388.483 122.767 388.724 123.008C388.966 123.25 388.966 123.25 389.207 123.733L389.69 125.664L388.966 125.906L388.483 123.974C388.483 123.733 388.483 123.733 388.242 123.733H388C387.759 123.733 387.759 123.733 387.759 123.974L387.518 124.216C387.518 124.216 387.518 124.457 387.276 124.457V124.698L387.518 126.389L386.793 126.63L386.311 123.25Z"
        fill="black" />
    <path
        d="M391.862 124.94L391.138 125.181V124.94C390.897 125.181 390.897 125.181 390.897 125.181C390.655 125.181 390.655 125.423 390.414 125.423C390.172 125.423 389.931 125.423 389.69 125.423C389.448 125.181 389.448 125.181 389.207 124.94L388.724 123.008L389.448 122.767L389.931 124.698C389.931 124.94 389.931 124.94 390.173 124.94H390.414C390.655 124.94 390.655 124.94 390.655 124.698L390.897 124.457C390.897 124.457 390.897 124.216 391.138 124.216V123.974L390.655 122.284L391.38 122.042L391.862 124.94Z"
        fill="black" />
    <path
        d="M392.586 121.077L392.828 121.801L393.311 121.56L393.552 122.043L393.069 122.284L393.552 123.733V123.974C393.552 123.974 393.552 123.974 393.793 123.974C393.793 123.974 393.793 123.974 394.035 123.974C394.035 123.974 394.276 123.974 394.276 123.733L394.518 124.216C394.518 124.216 394.276 124.216 394.276 124.457H394.035H393.793H393.552C393.552 124.457 393.311 124.457 393.311 124.216L393.069 123.974L392.586 122.284L392.104 122.525L391.862 122.043L392.345 121.801L392.104 121.077H392.586Z"
        fill="black" />
    <path
        d="M394.759 123.008L395.242 123.491C395.242 123.491 395.484 123.491 395.484 123.733H395.725C395.966 123.491 396.208 123.491 396.208 123.008L396.691 122.767C396.691 123.008 396.691 123.008 396.691 123.25C396.691 123.491 396.69 123.491 396.449 123.733C396.449 123.974 396.208 123.974 396.208 123.974C395.966 123.974 395.966 124.216 395.725 124.216C395.484 124.216 395.242 124.216 395.242 124.216C395.242 124.216 394.759 124.216 394.759 123.974C394.518 123.974 394.518 123.733 394.277 123.491C394.035 123.25 394.035 123.25 394.035 123.008C394.035 122.767 394.035 122.525 394.035 122.525C394.035 122.284 394.035 122.043 394.277 122.043C394.277 121.801 394.518 121.801 394.518 121.56C394.759 121.318 394.759 121.318 395.001 121.318C395.242 121.318 395.484 121.318 395.484 121.318C395.725 121.318 395.725 121.318 395.966 121.56C396.208 121.56 396.208 121.801 396.449 121.801C396.69 122.043 396.691 122.043 396.691 122.284V122.525L394.759 123.008ZM395.725 122.043C395.725 121.801 395.484 121.801 395.484 121.801C395.242 121.801 395.242 121.801 395.001 121.801C395.001 121.801 394.759 121.801 394.759 122.043L394.518 122.284V122.525V122.767L395.725 122.043Z"
        fill="black" />
    <path
        d="M397.656 122.284C397.897 122.525 397.656 122.525 397.656 122.284C398.138 122.525 398.138 122.525 398.38 122.525H398.621C398.621 122.525 398.863 122.525 398.863 122.284C398.863 122.284 398.863 122.284 398.863 122.043C398.863 121.801 398.863 121.801 398.863 121.801C398.863 121.801 398.863 121.801 398.621 121.56H398.38H398.138H397.897C397.897 121.56 397.656 121.56 397.414 121.56C397.173 121.56 397.173 121.56 396.932 121.56C396.69 121.56 396.69 121.559 396.69 121.318L396.449 121.077C396.449 120.835 396.449 120.835 396.449 120.594C396.449 120.352 396.449 120.352 396.69 120.352C396.69 120.111 396.932 120.111 396.932 120.111C397.173 120.111 397.173 119.869 397.414 119.869C397.656 119.869 397.656 119.628 397.897 119.628C398.139 119.628 398.138 119.628 398.38 119.628C398.621 119.628 398.621 119.869 398.621 119.869C398.621 119.869 398.863 120.111 398.863 120.352L398.38 120.594C398.38 120.352 398.138 120.352 398.138 120.352C397.897 120.352 397.897 120.352 397.897 120.352C397.656 120.352 397.656 120.594 397.656 120.594V120.835L397.897 121.077C397.897 121.077 398.138 121.077 398.38 121.077C398.621 121.077 398.621 121.077 398.863 121.077C399.104 121.077 399.104 121.077 399.345 121.077C399.587 121.077 399.587 121.077 399.587 121.318L399.828 121.56C399.828 121.801 399.828 121.801 399.828 122.043C399.828 122.284 399.828 122.284 399.587 122.525C399.587 122.767 399.345 122.767 399.345 122.767C399.104 122.767 399.104 123.008 398.863 123.008C398.621 123.008 398.621 123.008 398.38 123.25C398.138 123.25 398.139 123.25 397.897 123.25C397.656 123.25 397.656 123.008 397.414 123.008C397.173 122.767 397.173 122.767 397.173 122.525L397.656 122.284Z"
        fill="black" />
    <path
        d="M421.553 148.844L424.209 158.986L419.864 157.295L418.415 151.259L413.346 154.881L409.001 153.191L417.691 147.396C417.45 146.671 417.208 145.705 416.967 144.981C416.725 144.015 416.484 143.291 416.243 142.325C416.001 141.359 415.76 140.635 415.519 139.669C415.277 138.703 415.036 137.979 414.794 137.254L419.139 138.945L420.588 144.981L425.657 141.359L430.002 143.049L421.553 148.844Z"
        fill="black" />
    <path
        d="M441.106 165.505L444.003 157.537L429.278 151.983L431.209 146.913L453.9 131.942L459.21 133.874L451.244 155.122L456.072 156.812L454.382 161.4L449.555 159.71L446.658 167.678L441.106 165.505ZM437.244 149.569L445.934 152.708L450.52 140.635L437.244 149.569Z"
        fill="black" />
</svg>